<svg width="50" height="51" viewBox="0 0 50 51" fill="none" xmlns="http://www.w3.org/2000/svg">
<path opacity="0.935" fill-rule="evenodd" clip-rule="evenodd" d="M9.82842 0.0592478C10.5757 -0.126394 11.0957 0.124669 11.3886 0.812446C11.4424 2.53367 11.4604 4.25526 11.4424 5.97724C12.339 5.97724 13.2358 5.97724 14.1324 5.97724C14.1144 4.21941 14.1324 2.46194 14.1862 0.704847C14.5895 0.0547071 15.1455 -0.106693 15.854 0.220647C16.0207 0.351274 16.1461 0.512673 16.2306 0.704847C16.2844 2.46194 16.3024 4.21941 16.2844 5.97724C17.181 5.97724 18.0778 5.97724 18.9744 5.97724C18.9564 4.29113 18.9744 2.60539 19.0282 0.920046C19.1327 0.313345 19.4913 0.0264084 20.1042 0.0592478C20.7171 0.0264084 21.0757 0.313345 21.1802 0.920046C21.234 2.60539 21.252 4.29113 21.234 5.97724C22.1306 5.97724 23.0274 5.97724 23.924 5.97724C23.906 4.21941 23.924 2.46194 23.9778 0.704847C24.3811 0.0547071 24.937 -0.106693 25.6456 0.220647C25.8123 0.351274 25.9377 0.512673 26.0222 0.704847C26.076 2.46194 26.094 4.21941 26.076 5.97724C26.9726 5.97724 27.8694 5.97724 28.766 5.97724C28.748 4.29113 28.766 2.60539 28.8198 0.920046C28.9243 0.313345 29.2829 0.0264084 29.8958 0.0592478C30.5087 0.0264084 30.8673 0.313345 30.9718 0.920046C31.0256 2.60539 31.0435 4.29113 31.0256 5.97724C31.9222 5.97724 32.8189 5.97724 33.7156 5.97724C33.6976 4.21941 33.7156 2.46194 33.7694 0.704847C34.1727 0.0547071 34.7286 -0.106693 35.4372 0.220647C35.6038 0.351274 35.7293 0.512673 35.8138 0.704847C35.8676 2.46194 35.8855 4.21941 35.8676 5.97724C36.7642 5.97724 37.6609 5.97724 38.5576 5.97724C38.5396 4.25526 38.5576 2.53367 38.6114 0.812446C38.9051 0.107345 39.4251 -0.125781 40.1716 0.113048C40.5431 0.299002 40.7403 0.603864 40.7634 1.02765C40.7813 2.71452 40.8351 4.40025 40.9248 6.08484C42.5388 6.47937 43.543 7.48363 43.9376 9.09763C45.6221 9.18726 47.3079 9.24106 48.9947 9.25903C49.8298 9.45174 50.1347 9.97188 49.9093 10.8192C49.7747 11.1292 49.5417 11.3265 49.2099 11.411C47.4887 11.4648 45.7671 11.4828 44.0452 11.4648C44.0452 12.3615 44.0452 13.2582 44.0452 14.1548C45.803 14.1368 47.5604 14.1548 49.3175 14.2086C49.9677 14.6119 50.1291 15.1679 49.8017 15.8764C49.6711 16.0431 49.5097 16.1685 49.3175 16.253C47.5604 16.3068 45.803 16.3248 44.0452 16.3068C44.0452 17.2034 44.0452 18.1002 44.0452 18.9968C45.7312 18.9788 47.417 18.9968 49.1023 19.0506C49.7091 19.1551 49.996 19.5137 49.9631 20.1266C49.996 20.7395 49.7091 21.0981 49.1023 21.2026C47.417 21.2564 45.7312 21.2744 44.0452 21.2564C44.0452 22.153 44.0452 23.0498 44.0452 23.9464C45.803 23.9284 47.5604 23.9464 49.3175 24.0002C49.9677 24.4035 50.1291 24.9595 49.8017 25.668C49.6711 25.8347 49.5097 25.9601 49.3175 26.0446C47.5604 26.0984 45.803 26.1164 44.0452 26.0984C44.0452 26.995 44.0452 27.8918 44.0452 28.7884C45.7312 28.7704 47.417 28.7884 49.1023 28.8422C49.7091 28.9467 49.996 29.3053 49.9631 29.9182C49.996 30.5311 49.7091 30.8897 49.1023 30.9942C47.417 31.048 45.7312 31.066 44.0452 31.048C44.0452 31.9446 44.0452 32.8414 44.0452 33.738C45.803 33.72 47.5604 33.738 49.3175 33.7918C49.9677 34.1951 50.1291 34.751 49.8017 35.4596C49.6711 35.6262 49.5097 35.7517 49.3175 35.8362C47.5604 35.89 45.803 35.9079 44.0452 35.89C44.0452 36.7866 44.0452 37.6833 44.0452 38.58C45.7671 38.562 47.4887 38.58 49.2099 38.6338C49.915 38.9275 50.1482 39.4475 49.9093 40.194C49.7234 40.5655 49.4185 40.7627 48.9947 40.7858C47.3079 40.8037 45.6221 40.8575 43.9376 40.9472C43.543 42.5612 42.5388 43.5654 40.9248 43.96C40.8351 45.6445 40.7813 47.3303 40.7634 49.0172C40.5706 49.8522 40.0505 50.1571 39.2032 49.9317C38.8932 49.7971 38.6959 49.5641 38.6114 49.2323C38.5576 47.5111 38.5396 45.7895 38.5576 44.0676C37.6609 44.0676 36.7642 44.0676 35.8676 44.0676C35.8855 45.8254 35.8676 47.5828 35.8138 49.34C35.4105 49.9901 34.8545 50.1515 34.146 49.8241C33.9793 49.6935 33.8538 49.5321 33.7694 49.34C33.7156 47.5828 33.6976 45.8254 33.7156 44.0676C32.8189 44.0676 31.9222 44.0676 31.0256 44.0676C31.0435 45.7536 31.0256 47.4394 30.9718 49.1247C30.8673 49.7315 30.5087 50.0184 29.8958 49.9855C29.2829 50.0184 28.9243 49.7315 28.8198 49.1247C28.766 47.4394 28.748 45.7536 28.766 44.0676C27.8694 44.0676 26.9726 44.0676 26.076 44.0676C26.094 45.8254 26.076 47.5828 26.0222 49.34C25.6189 49.9901 25.0629 50.1515 24.3544 49.8241C24.1877 49.6935 24.0623 49.5321 23.9778 49.34C23.924 47.5828 23.906 45.8254 23.924 44.0676C23.0274 44.0676 22.1306 44.0676 21.234 44.0676C21.252 45.7536 21.234 47.4394 21.1802 49.1247C21.0757 49.7315 20.7171 50.0184 20.1042 49.9855C19.4913 50.0184 19.1327 49.7315 19.0282 49.1247C18.9744 47.4394 18.9564 45.7536 18.9744 44.0676C18.0778 44.0676 17.181 44.0676 16.2844 44.0676C16.3024 45.8254 16.2844 47.5828 16.2306 49.34C15.8273 49.9901 15.2714 50.1515 14.5628 49.8241C14.3961 49.6935 14.2707 49.5321 14.1862 49.34C14.1324 47.5828 14.1144 45.8254 14.1324 44.0676C13.2358 44.0676 12.339 44.0676 11.4424 44.0676C11.4604 45.7895 11.4424 47.5111 11.3886 49.2323C11.0949 49.9375 10.5748 50.1706 9.82842 49.9317C9.45688 49.7458 9.25965 49.4409 9.23662 49.0172C9.21865 47.3303 9.16486 45.6445 9.07522 43.96C7.46123 43.5654 6.45697 42.5612 6.06243 40.9472C4.37785 40.8575 2.69211 40.8037 1.00524 40.7858C0.17017 40.5931 -0.134693 40.0729 0.0906425 39.2256C0.225207 38.9156 0.458343 38.7183 0.790041 38.6338C2.51126 38.58 4.23286 38.562 5.95483 38.58C5.95483 37.6833 5.95483 36.7866 5.95483 35.89C4.19701 35.9079 2.43954 35.89 0.682441 35.8362C0.0323019 35.4329 -0.129098 34.8769 0.198242 34.1684C0.328868 34.0017 0.490268 33.8762 0.682441 33.7918C2.43954 33.738 4.19701 33.72 5.95483 33.738C5.95483 32.8414 5.95483 31.9446 5.95483 31.048C4.26872 31.066 2.58299 31.048 0.897641 30.9942C0.290939 30.8897 0.00400317 30.5311 0.0368426 29.9182C0.00400317 29.3053 0.290939 28.9467 0.897641 28.8422C2.58299 28.7884 4.26872 28.7704 5.95483 28.7884C5.95483 27.8918 5.95483 26.995 5.95483 26.0984C4.19701 26.1164 2.43954 26.0984 0.682441 26.0446C0.0323019 25.6413 -0.129098 25.0853 0.198242 24.3768C0.328868 24.2101 0.490268 24.0847 0.682441 24.0002C2.43954 23.9464 4.19701 23.9284 5.95483 23.9464C5.95483 23.0498 5.95483 22.153 5.95483 21.2564C4.26872 21.2744 2.58299 21.2564 0.897641 21.2026C0.290939 21.0981 0.00400317 20.7395 0.0368426 20.1266C0.00400317 19.5137 0.290939 19.1551 0.897641 19.0506C2.58299 18.9968 4.26872 18.9788 5.95483 18.9968C5.95483 18.1002 5.95483 17.2034 5.95483 16.3068C4.19701 16.3248 2.43954 16.3068 0.682441 16.253C0.0323019 15.8497 -0.129098 15.2938 0.198242 14.5852C0.328868 14.4185 0.490268 14.2931 0.682441 14.2086C2.43954 14.1548 4.19701 14.1368 5.95483 14.1548C5.95483 13.2582 5.95483 12.3615 5.95483 11.4648C4.23286 11.4828 2.51126 11.4648 0.790041 11.411C0.0849397 11.1173 -0.148186 10.5972 0.0906425 9.85083C0.276596 9.47929 0.581459 9.28205 1.00524 9.25903C2.69211 9.24106 4.37785 9.18726 6.06243 9.09763C6.45697 7.48363 7.46123 6.47937 9.07522 6.08484C9.16486 4.40025 9.21865 2.71452 9.23662 1.02765C9.2731 0.594062 9.47044 0.271262 9.82842 0.0592478ZM9.39802 8.23683C19.7994 8.21889 30.2007 8.23683 40.602 8.29063C41.1579 8.48786 41.5345 8.86446 41.7318 9.42043C41.8035 19.8218 41.8035 30.223 41.7318 40.6244C41.5345 41.1803 41.1579 41.5569 40.602 41.7542C30.2006 41.8259 19.7994 41.8259 9.39802 41.7542C8.84206 41.5569 8.46546 41.1803 8.26823 40.6244C8.19649 30.223 8.19649 19.8218 8.26823 9.42043C8.48558 8.86252 8.86218 8.46796 9.39802 8.23683ZM22.9556 14.1548C23.0577 14.0847 23.1832 14.0487 23.3322 14.0472C24.255 14.1268 25.1696 14.2524 26.076 14.4238C26.8621 14.9516 27.1669 15.6869 26.9906 16.6296C26.7467 17.9395 26.4418 19.2307 26.076 20.5032C25.6166 20.3915 25.1504 20.3197 24.6772 20.288C24.5961 18.5016 24.2195 16.78 23.5474 15.1232C23.4014 14.7576 23.2042 14.4348 22.9556 14.1548ZM33.3928 17.8132C33.9564 18.7436 34.4226 19.73 34.7916 20.7722C34.6575 21.6132 34.1913 22.1871 33.3928 22.4938C32.1525 22.9072 30.9151 23.3197 29.6806 23.7312C29.4276 23.2624 29.2124 22.7962 29.035 22.3324C30.4627 21.3709 31.718 20.2231 32.801 18.8892C33.0282 18.542 33.2255 18.1834 33.3928 17.8132ZM17.0376 18.4588C17.5814 18.4872 18.0836 18.6486 18.544 18.943C19.4963 19.8416 20.4647 20.7203 21.4492 21.5792C21.1829 21.9711 20.8959 22.3477 20.5884 22.709C19.3735 22.2325 18.1182 21.8381 16.8224 21.5254C16.037 21.4157 15.248 21.3439 14.4552 21.3102C15.0112 20.539 15.567 19.768 16.123 18.9968C16.4116 18.7725 16.7165 18.5931 17.0376 18.4588ZM24.2468 22.5476C25.9483 22.3842 27.0781 23.1015 27.6362 24.6996C27.8751 26.7741 26.9605 27.9577 24.8924 28.2504C23.1243 28.1143 22.1559 27.1638 21.9872 25.399C22.1651 23.9846 22.9183 23.0341 24.2468 22.5476ZM19.62 26.5288C19.7622 26.5105 19.8878 26.5463 19.9966 26.6364C20.1209 27.1179 20.3181 27.5663 20.5884 27.9814C18.8742 29.05 17.5292 30.4666 16.5534 32.2316C16.1313 31.4231 15.7367 30.5981 15.3698 29.7568C15.1831 28.6876 15.5956 27.9523 16.6072 27.551C17.6271 27.2171 18.6314 26.8763 19.62 26.5288ZM29.5192 27.282C31.4107 28.239 33.4192 28.7232 35.5448 28.7346C35.0115 29.4605 34.4914 30.1957 33.9846 30.9404C33.2018 31.7396 32.359 31.7934 31.456 31.1018C30.5593 30.2768 29.6626 29.452 28.766 28.627C29.0606 28.1989 29.3116 27.7506 29.5192 27.282ZM23.7088 30.2948C24.2788 30.3782 24.8526 30.414 25.4304 30.4024C25.493 32.3933 26.031 34.2404 27.0444 35.9438C26.1105 35.9294 25.1781 35.8576 24.2468 35.7286C23.3954 35.427 22.965 34.8172 22.9556 33.8994C23.1592 32.684 23.4102 31.4825 23.7088 30.2948Z" fill="#4EB828"/>
<path opacity="0.948" fill-rule="evenodd" clip-rule="evenodd" d="M22.0947 11.7876C23.6099 11.871 25.1163 12.0324 26.6138 12.2718C28.3434 12.9498 29.2042 14.223 29.1962 16.0916C29.0325 17.3932 28.8352 18.6844 28.6044 19.9652C29.3543 19.323 30.0717 18.6416 30.7564 17.9208C31.2365 17.1217 31.7566 16.3507 32.3166 15.6074C33.3287 15.0379 34.2433 15.1634 35.0604 15.984C35.6637 17.2264 36.2377 18.4818 36.782 19.75C37.2014 22.0136 36.3586 23.6096 34.2534 24.5382C33.243 24.869 32.2387 25.2097 31.2406 25.5604C32.9089 26.3407 34.6663 26.6813 36.513 26.5826C37.7568 27.0475 38.2051 27.9263 37.858 29.2188C37.1672 30.2777 36.4499 31.3177 35.706 32.3392C34.2664 33.8303 32.5987 34.1352 30.7026 33.2538C29.6171 32.4556 28.5949 31.5768 27.636 30.6176C27.7799 32.4119 28.3538 34.0618 29.3576 35.5671C29.7192 36.9267 29.235 37.8054 27.905 38.2033C26.3895 38.1738 24.8831 38.0303 23.3859 37.7729C21.294 36.8586 20.4512 35.2624 20.8573 32.9848C21.1 32.0431 21.2614 31.1106 21.3415 30.1872C19.9492 31.1664 18.8911 32.4218 18.1673 33.9532C17.1248 35.0604 16.0488 35.0962 14.9393 34.0608C14.3377 32.8215 13.7638 31.5663 13.2177 30.2948C12.7991 28.0294 13.6419 26.4333 15.7463 25.5066C16.7572 25.2055 17.7614 24.8827 18.7591 24.5382C18.0206 24.1246 17.2316 23.8376 16.3919 23.6774C15.3916 23.558 14.3873 23.4863 13.3791 23.4622C12.2238 22.9392 11.8113 22.0606 12.1417 20.826C12.8325 19.7671 13.5498 18.727 14.2937 17.7056C15.7366 16.2144 17.4044 15.9094 19.2971 16.791C20.3826 17.5892 21.4048 18.4679 22.3637 19.4272C22.219 17.6306 21.6452 15.9808 20.6421 14.4776C20.3389 13.1467 20.8231 12.25 22.0947 11.7876ZM22.9555 14.1548C23.204 14.4348 23.4012 14.7576 23.5473 15.1232C24.2193 16.78 24.5959 18.5016 24.677 20.288C25.1503 20.3197 25.6165 20.3915 26.0758 20.5032C26.4417 19.2307 26.7465 17.9395 26.9904 16.6296C27.1668 15.6869 26.862 14.9516 26.0758 14.4238C25.1694 14.2524 24.2548 14.1268 23.3321 14.0472C23.183 14.0487 23.0576 14.0846 22.9555 14.1548ZM33.3926 17.8132C33.2253 18.1833 33.0281 18.542 32.8008 18.8892C31.7178 20.2231 30.4626 21.3709 29.0348 22.3324C29.2123 22.7961 29.4275 23.2624 29.6804 23.7312C30.9149 23.3197 32.1523 22.9072 33.3926 22.4938C34.1911 22.1871 34.6574 21.6132 34.7914 20.7722C34.4225 19.73 33.9562 18.7436 33.3926 17.8132ZM17.0375 18.4588C16.7164 18.5931 16.4114 18.7724 16.1229 18.9968C15.5669 19.768 15.011 20.539 14.4551 21.3102C15.2479 21.3439 16.0369 21.4156 16.8223 21.5254C18.1181 21.8381 19.3733 22.2325 20.5883 22.709C20.8958 22.3477 21.1827 21.9711 21.4491 21.5792C20.4645 20.7203 19.4961 19.8415 18.5439 18.943C18.0834 18.6486 17.5813 18.4872 17.0375 18.4588ZM24.2466 22.5476C22.9181 23.034 22.1649 23.9846 21.9871 25.399C22.1558 27.1638 23.1242 28.1143 24.8922 28.2504C26.9603 27.9577 27.8749 26.7741 27.636 24.6996C27.0779 23.1015 25.9481 22.3841 24.2466 22.5476ZM19.6199 26.5288C18.6312 26.8763 17.627 27.2171 16.6071 27.551C15.5954 27.9523 15.183 28.6875 15.3697 29.7568C15.7366 30.5981 16.1312 31.4231 16.5533 32.2316C17.5291 30.4666 18.8741 29.0499 20.5883 27.9814C20.318 27.5662 20.1207 27.1179 19.9965 26.6364C19.8877 26.5463 19.7621 26.5105 19.6199 26.5288ZM29.519 27.282C29.3115 27.7506 29.0604 28.1988 28.7658 28.627C29.6625 29.4519 30.5592 30.2768 31.4558 31.1018C32.3588 31.7934 33.2016 31.7396 33.9844 30.9404C34.4912 30.1957 35.0114 29.4604 35.5446 28.7346C33.4191 28.7232 31.4105 28.239 29.519 27.282ZM23.7087 30.2948C23.4101 31.4824 23.159 32.684 22.9555 33.8994C22.9648 34.8172 23.3952 35.4269 24.2466 35.7285C25.1779 35.8576 26.1104 35.9293 27.0442 35.9437C26.0309 34.2403 25.4929 32.3933 25.4302 30.4024C24.8524 30.414 24.2786 30.3781 23.7087 30.2948Z" fill="#4EB828"/>
</svg>
