<svg width="50" height="50" viewBox="0 0 50 50" fill="none" xmlns="http://www.w3.org/2000/svg">
<path d="M7.51953 2.36328V4.73633L7.01172 5.01953C6.36719 5.38086 5.38086 6.36719 5.01953 7.01172L4.73633 7.51953H2.37305H0V8.34961V9.17969H2.09961H4.19922V10.4004V11.6211H2.09961H0V12.5V13.3789H2.09961H4.19922V14.5996V15.8203H2.09961H0V16.6504V17.4805H2.09961H4.19922V18.75V20.0195H2.09961H0V20.8496V21.6797H2.09961H4.19922V22.9004V24.1211H2.09961H0V25V25.8789H2.09961H4.19922V27.0996V28.3203H2.09961H0V29.1504V29.9805H2.09961H4.19922V31.25V32.5195H2.09961H0V33.3496V34.1797H2.09961H4.19922V35.4004V36.6211H2.09961H0V37.5V38.3789H2.09961H4.19922V39.5996V40.8203H2.09961H0V41.6504V42.4805H2.37305H4.73633L5.01953 42.9883C5.38086 43.6328 6.36719 44.6191 7.01172 44.9805L7.51953 45.2637V47.627V50H8.34961H9.17969V47.9004V45.8008H10.4004H11.6211V47.9004V50H12.5H13.3789V47.9004V45.8008H14.5996H15.8203V47.9004V50H16.6504H17.4805V47.9004V45.8008H18.75H20.0195V47.9004V50H20.8496H21.6797V47.9004V45.8008H22.9004H24.1211V47.9004V50H25H25.8789V47.9004V45.8008H27.0996H28.3203V47.9004V50H29.1504H29.9805V47.9004V45.8008H31.25H32.5195V47.9004V50H33.3496H34.1797V47.9004V45.8008H35.4004H36.6211V47.9004V50H37.5H38.3789V47.9004V45.8008H39.5996H40.8203V47.9004V50H41.6504H42.4805V47.627V45.2637L42.9883 44.9805C43.6328 44.6191 44.6191 43.6328 44.9805 42.9883L45.2637 42.4805H47.6367H50V41.6504V40.8203H47.9004H45.8008V39.5996V38.3789H47.9004H50V37.5V36.6211H47.9004H45.8008V35.4004V34.1797H47.9004H50V33.3496V32.5195H47.9004H45.8008V31.25V29.9805H47.9004H50V29.1504V28.3203H47.9004H45.8008V27.0996V25.8789H47.9004H50V25V24.1211H47.9004H45.8008V22.9004V21.6797H47.9004H50V20.8496V20.0195H47.9004H45.8008V18.75V17.4805H47.9004H50V16.6504V15.8203H47.9004H45.8008V14.5996V13.3789H47.9004H50V12.5V11.6211H47.9004H45.8008V10.4004V9.17969H47.9004H50V8.34961V7.51953H47.6367H45.2637L44.9805 7.01172C44.6191 6.36719 43.6328 5.38086 42.9883 5.01953L42.4805 4.73633V2.36328V0H41.6504H40.8203V2.09961V4.19922H39.5996H38.3789V2.09961V0H37.5H36.6211V2.09961V4.19922H35.4004H34.1797V2.09961V0H33.3496H32.5195V2.09961V4.19922H31.25H29.9805V2.09961V0H29.1504H28.3203V2.09961V4.19922H27.0996H25.8789V2.09961V0H25H24.1211V2.09961V4.19922H22.9004H21.6797V2.09961V0H20.8496H20.0195V2.09961V4.19922H18.75H17.4805V2.09961V0H16.6504H15.8203V2.09961V4.19922H14.5996H13.3789V2.09961V0H12.5H11.6211V2.09961V4.19922H10.4004H9.17969V2.09961V0H8.34961H7.51953V2.36328ZM41.2305 6.05469C42.4902 6.44531 43.5547 7.50977 43.9453 8.76953C44.1406 9.38477 44.1406 9.7168 44.1406 25C44.1406 40.2832 44.1406 40.6152 43.9453 41.2305C43.5547 42.4902 42.4902 43.5547 41.2305 43.9453C40.6152 44.1406 40.2832 44.1406 25 44.1406C9.7168 44.1406 9.38477 44.1406 8.76953 43.9453C7.50977 43.5547 6.44531 42.4902 6.05469 41.2305C5.85938 40.6152 5.85938 40.2832 5.85938 25C5.85938 9.64844 5.85938 9.38477 6.05469 8.75977C6.43555 7.51953 7.5 6.45508 8.75 6.05469C9.30664 5.87891 9.92188 5.86914 24.9609 5.86914C40.293 5.85938 40.6152 5.85938 41.2305 6.05469Z" fill="#55CB29"/>
<path d="M10.2246 8.4375C9.50195 8.63282 8.98438 9.05274 8.64258 9.7168L8.34961 10.293V25V39.707L8.64258 40.293C8.99414 40.9766 9.58984 41.4258 10.3516 41.5918C11.0449 41.7383 38.9551 41.7383 39.6484 41.5918C40.4102 41.4258 41.0059 40.9766 41.3574 40.293L41.6504 39.707V25V10.293L41.3574 9.70704C41.0059 9.02344 40.4102 8.57422 39.6484 8.40821C38.8672 8.24219 10.8496 8.27149 10.2246 8.4375ZM39.7168 10.2832L39.9902 10.5469V25V39.4531L39.7168 39.7168L39.4531 39.9902H25H10.5469L10.2832 39.7168L10.0098 39.4531V25.0098C10.0098 10.7031 10.0098 10.5664 10.2051 10.3516C10.3125 10.2344 10.4883 10.0977 10.5957 10.0488C10.7031 10.0098 17.2363 9.98047 25.1172 9.99024L39.4531 10.0098L39.7168 10.2832Z" fill="#55CB29"/>
<path d="M13.0273 11.709C12.5293 11.8359 12.1387 12.1191 11.9043 12.5391C11.6992 12.9004 11.6699 13.0957 11.6406 14.375L11.6016 15.8203H12.4902H13.3789V14.5996V13.3789H14.5996H15.8203V12.5V11.6211L14.5801 11.6309C13.8867 11.6406 13.1934 11.6699 13.0273 11.709Z" fill="#55CB29"/>
<path d="M36.6601 11.748C36.6308 11.8262 36.621 12.207 36.6405 12.6074L36.6698 13.3301H37.4999H38.33V12.5V11.6699L37.5194 11.6406C36.9042 11.6211 36.6991 11.6406 36.6601 11.748Z" fill="#55CB29"/>
<path d="M36.6211 35.4004V36.6211H35.4004H34.1797V37.5V38.3789L36.2598 38.3594L38.3301 38.3301L38.3594 36.25L38.3789 34.1797H37.5H36.6211V35.4004Z" fill="#55CB29"/>
<path d="M11.6601 36.748C11.6308 36.8262 11.621 37.207 11.6405 37.6074L11.6698 38.3301H12.4999H13.33V37.5V36.6699L12.5194 36.6406C11.9042 36.6211 11.6991 36.6406 11.6601 36.748Z" fill="#55CB29"/>
</svg>
