<svg width="50" height="48" viewBox="0 0 50 48" fill="none" xmlns="http://www.w3.org/2000/svg">
<path d="M4.07137 0.0897026C3.62225 0.226391 3.16337 0.636459 2.93881 1.09534C2.76306 1.45659 2.73377 1.70068 2.73377 2.80395V4.09273H1.53287C0.488174 4.09273 0.302668 4.11226 0.165979 4.26847C-0.0488174 4.50279 -0.0390539 4.80546 0.175743 5.00073C0.322195 5.13742 0.576045 5.16671 1.54263 5.16671H2.73377V5.53772V5.90873L1.54263 6.18211C0.878713 6.32856 0.263614 6.52383 0.175743 6.61171C0.019527 6.74839 0 7.03153 0 9.90199C0 12.255 0.0292904 13.0751 0.117162 13.202C0.205033 13.3094 0.67368 13.4559 1.48405 13.6316L2.73377 13.8953V14.2663V14.6373H1.58168C0.322195 14.6373 0 14.7447 0 15.1645C0 15.6234 0.25385 15.7113 1.54263 15.7113H2.73377V16.7364V17.7616H1.5231C0.546755 17.7616 0.273377 17.7909 0.156216 17.9178C0.019527 18.0447 0 18.5524 0 22.0087V25.9531L0.214796 26.0996C0.380776 26.2168 0.70297 26.2558 1.58168 26.2558H2.73377V35.9998V45.7535L2.95833 46.1831C3.08526 46.4174 3.37816 46.7396 3.60272 46.9056L4.02255 47.1985L26.0978 47.2278C42.7152 47.2473 48.2901 47.2278 48.6026 47.1399C49.12 46.9934 49.7156 46.4174 49.8718 45.8999C50.0476 45.3336 50.0378 1.89595 49.8718 1.3199C49.7156 0.812199 49.1689 0.265446 48.6612 0.10923C48.3487 0.0213585 43.3791 -0.00793076 26.3028 0.00183105C14.2254 0.00183105 4.21782 0.0506477 4.07137 0.0897026ZM48.6612 1.3199L48.915 1.58352V23.6197V45.6558L48.6612 45.9195L48.3975 46.1733H26.3419H4.28617L4.05184 45.9292L3.80776 45.6949V36.5563V27.4274H6.61964C8.89453 27.4274 9.47057 27.3981 9.62679 27.2907C9.80253 27.1541 9.81229 26.9881 9.81229 21.9599C9.81229 16.9317 9.80253 16.7657 9.62679 16.629C9.47057 16.5216 8.89453 16.4923 6.61964 16.4923H3.80776V16.1018V15.7113H6.61964C8.89453 15.7113 9.47057 15.682 9.62679 15.5746C9.80253 15.4379 9.81229 15.2621 9.81229 9.90199C9.81229 4.54185 9.80253 4.3661 9.62679 4.22942C9.47057 4.12202 8.89453 4.09273 6.61964 4.09273H3.80776V2.82347C3.80776 1.59328 3.81752 1.5347 4.05184 1.31014L4.28617 1.06605H26.3419H48.3975L48.6612 1.3199ZM8.78713 9.90199V14.6373H6.29744H3.80776V13.1435C3.80776 12.3136 3.77847 10.1851 3.73941 8.40818L3.68083 5.16671H6.2291H8.78713V9.90199ZM2.73377 9.90199C2.73377 11.6985 2.69472 12.7822 2.63614 12.7822C2.58732 12.7822 2.21631 12.7139 1.80624 12.6162L1.07398 12.46V9.90199V7.34396L1.7379 7.19751C2.09915 7.10964 2.47016 7.0413 2.56779 7.03153C2.72401 7.02177 2.73377 7.21704 2.73377 9.90199ZM8.78713 21.9599V26.3534H6.29744H3.80776V21.9599V17.5663H6.29744H8.78713V21.9599ZM2.73377 21.9599V25.1818H1.90388H1.07398V21.9599V18.7379H1.90388H2.73377V21.9599Z" fill="#55CB29"/>
<path d="M35.7538 2.35482C35.6855 2.42317 35.6367 2.76489 35.6367 3.22377V3.9658L35.168 4.2587C34.8361 4.46373 34.631 4.68829 34.4846 4.99096L34.2698 5.42055V16.2873C34.2698 26.0898 34.2893 27.1736 34.426 27.4567C34.631 27.8668 34.9337 28.189 35.2754 28.3647C35.5195 28.4916 35.539 28.5502 35.539 29.0775C35.539 30.1026 35.871 30.542 36.3884 30.2003C36.5935 30.0733 36.613 29.9855 36.613 29.2727C36.613 28.6186 36.6423 28.4819 36.7888 28.4331C37.1402 28.3061 37.5991 27.8863 37.7846 27.5251C37.9799 27.1443 37.9799 26.9783 37.9604 16.1701L37.9311 5.19599L37.6479 4.79569C37.4917 4.57113 37.2086 4.31728 36.9938 4.21964L36.6228 4.0439L36.613 3.25306C36.613 2.40364 36.5349 2.23766 36.1248 2.23766C35.9881 2.23766 35.8222 2.28648 35.7538 2.35482ZM36.447 5.08859C36.9157 5.33268 36.8962 4.8738 36.9059 16.2678C36.9059 26.8611 36.9059 27.0369 36.7106 27.2322C36.2908 27.652 35.6367 27.5641 35.373 27.0369C35.1973 26.6854 35.1973 5.81109 35.373 5.45961C35.4902 5.22528 35.8612 4.97143 36.1053 4.97143C36.1737 4.97143 36.3299 5.02025 36.447 5.08859Z" fill="#55CB29"/>
<path d="M41.6509 2.39384C41.5337 2.50124 41.4947 2.74533 41.4947 3.32137C41.4947 3.89741 41.4654 4.09268 41.3677 4.09268C41.2994 4.09268 41.0553 4.2489 40.8405 4.4344C40.0692 5.08856 40.118 4.29772 40.1473 16.3947C40.1766 26.8416 40.1863 27.1931 40.3621 27.5641C40.489 27.8082 40.7233 28.0523 41.026 28.2378L41.4947 28.5307V29.2336C41.4947 30.0342 41.6216 30.2881 42.0316 30.2881C42.4417 30.2881 42.5686 30.0342 42.5686 29.2141C42.5686 28.5307 42.5784 28.5014 42.8518 28.3647C43.2521 28.1499 43.711 27.5836 43.8281 27.1638C43.9746 26.6463 43.9746 5.85011 43.8281 5.33265C43.711 4.88353 43.2618 4.3563 42.8615 4.19032C42.5784 4.07316 42.5686 4.05363 42.5686 3.37019C42.5686 2.57935 42.4027 2.23762 42.0316 2.23762C41.9047 2.23762 41.729 2.30597 41.6509 2.39384ZM42.6467 5.32288L42.8615 5.56697V16.258V26.9587L42.5784 27.2419C42.2757 27.5445 42.0024 27.5934 41.6606 27.4079C41.192 27.1638 41.2115 27.6129 41.2017 16.2384V5.48886L41.4263 5.29359C41.8461 4.90305 42.2757 4.91282 42.6467 5.32288Z" fill="#55CB29"/>
<path d="M46.4936 2.74534C46.3276 2.91132 46.3276 20.1146 46.4936 20.2805C46.6401 20.427 47.0892 20.427 47.2356 20.2805C47.4016 20.1146 47.4016 2.91132 47.2356 2.74534C47.1673 2.677 47.0013 2.62818 46.8646 2.62818C46.7279 2.62818 46.562 2.677 46.4936 2.74534Z" fill="#55CB29"/>
<path d="M19.6247 3.1066C19.5759 3.214 19.5271 3.76075 19.5271 4.32703V5.36196H18.3457H17.1643L16.8324 5.69392L16.5004 6.02588V7.20726V8.38864H15.446C14.2646 8.38864 14.04 8.47651 14.04 8.92563C14.04 9.37475 14.2646 9.46262 15.446 9.46262H16.5102L16.4809 9.97032L16.4516 10.4878L15.3581 10.5171C14.3036 10.5464 14.2451 10.5561 14.0986 10.7807C13.9522 11.0053 13.9522 11.0443 14.0986 11.2689C14.2451 11.4934 14.3036 11.5032 15.3581 11.5325L16.4516 11.5618L16.4809 12.0695L16.5102 12.5869H15.5534C15.0261 12.5869 14.4989 12.6162 14.372 12.6553C14.0498 12.7334 13.9131 13.1337 14.1084 13.4266C14.2548 13.6512 14.3134 13.6609 15.3874 13.6609H16.5102L16.4809 14.1686L16.4516 14.6861L15.5241 14.7056C15.0164 14.7251 14.4989 14.7544 14.372 14.7837C14.0596 14.8618 13.9131 15.2817 14.1084 15.5746C14.2548 15.7991 14.3134 15.8089 15.3776 15.8089H16.5004V17C16.5102 18.7184 16.6273 18.8356 18.3945 18.8356H19.5271V19.9486C19.5271 21.169 19.5857 21.3155 20.0836 21.2569C20.4839 21.2081 20.6011 20.8859 20.6011 19.7826V18.8356H21.0893H21.5774V19.7826C21.5774 20.8859 21.6946 21.2081 22.0949 21.2569C22.5928 21.3155 22.6514 21.169 22.6514 19.9486V18.8356H23.1884H23.7254V19.9388C23.7254 20.6711 23.7644 21.0812 23.8426 21.1593C23.9988 21.3155 24.4577 21.3057 24.5846 21.1495C24.6432 21.0812 24.7115 20.5442 24.7213 19.9486L24.7506 18.8844L25.268 18.8551L25.7757 18.8258V19.8314C25.7757 20.9835 25.8929 21.2764 26.3518 21.2764C26.8009 21.2764 26.8497 21.13 26.8497 19.9388V18.8356H28.0604C29.2613 18.8356 29.271 18.8356 29.5737 18.5524L29.8764 18.2693V17.0391V15.8089H30.9894C32.2001 15.8089 32.4149 15.7308 32.4149 15.2719C32.4149 14.8618 32.0829 14.7349 30.9797 14.7349H29.974V14.2467V13.7586H30.9797C32.0829 13.7586 32.4149 13.6316 32.4149 13.2216C32.4149 12.7724 32.2001 12.6846 31.0382 12.6846H29.974V12.1476V11.6106H30.9797C32.1317 11.6106 32.4149 11.4934 32.4149 11.0248C32.4149 10.6147 32.1903 10.5366 31.0089 10.5366H29.974V9.99961V9.46262H31.0382C32.2001 9.46262 32.4149 9.37475 32.4149 8.92563C32.4149 8.51557 32.0829 8.38864 30.9797 8.38864H29.974V7.31466C29.974 5.57676 29.7495 5.36196 27.9725 5.36196H26.9473V4.35633C26.9473 3.214 26.8302 2.92109 26.3713 2.92109C25.9222 2.92109 25.8734 3.06755 25.8734 4.25869V5.36196H25.3364H24.7994V4.32703C24.7994 3.14565 24.7213 2.92109 24.3112 2.92109C23.8426 2.92109 23.7254 3.20424 23.7254 4.35633V5.36196H23.2372H22.749V4.35633C22.749 3.20424 22.6319 2.92109 22.1632 2.92109C21.7532 2.92109 21.6751 3.14565 21.6751 4.32703V5.36196H21.1381H20.6011V4.30751C20.6011 3.3995 20.5718 3.22376 20.4253 3.08707C20.1813 2.86251 19.7517 2.87228 19.6247 3.1066ZM28.9 12.1476V17.8592H23.1884H17.4768V13.3875C17.4768 10.9369 17.5061 8.36911 17.5451 7.67591L17.6037 6.43595H23.2567H28.9V12.1476Z" fill="#55CB29"/>
<path d="M19.4877 8.34961L19.2339 8.61322V12.0988V15.5843L19.4877 15.848L19.7514 16.1018H23.2076H26.6737L26.9568 15.8187L27.2399 15.5355V12.0988V8.66204L26.9568 8.3789L26.6737 8.09576H23.2076H19.7514L19.4877 8.34961ZM26.166 12.1476V15.1255L23.2174 15.1059L20.2591 15.0766L20.2298 12.1183L20.2102 9.16974H23.1881H26.166V12.1476Z" fill="#55CB29"/>
<path d="M46.4936 23.2486C46.4058 23.3365 46.3765 24.2445 46.3765 26.7147V30.0635L46.6206 30.2198C46.8451 30.3662 46.8842 30.3662 47.1087 30.2198L47.3528 30.0635V26.7147C47.3528 23.1412 47.3528 23.1315 46.8646 23.1315C46.7279 23.1315 46.562 23.1803 46.4936 23.2486Z" fill="#55CB29"/>
<path d="M12.3607 26.2167C12.1654 26.4022 12.1654 26.6463 12.3411 26.9002C12.4681 27.0661 12.634 27.0857 14.3231 27.1149C16.3637 27.1442 16.6273 27.0857 16.6761 26.617C16.7445 26.08 16.6566 26.0605 14.4891 26.0605C12.8195 26.0605 12.4876 26.08 12.3607 26.2167Z" fill="#55CB29"/>
<path d="M17.8085 26.3046C17.4668 26.8221 17.8574 27.1345 18.8337 27.1345C19.8589 27.1345 20.2982 26.8026 19.9565 26.2851C19.8296 26.0801 19.7417 26.0605 18.8923 26.0605C18.0233 26.0605 17.9648 26.0703 17.8085 26.3046Z" fill="#55CB29"/>
<path d="M21.4309 26.2168C21.2063 26.4413 21.2844 26.8611 21.5773 27.0076C21.714 27.0759 22.1046 27.1345 22.456 27.1345C23.2371 27.1345 23.5691 26.9783 23.6081 26.6171C23.6667 26.1386 23.5007 26.0605 22.4951 26.0605C21.7921 26.0605 21.5578 26.0996 21.4309 26.2168Z" fill="#55CB29"/>
<path d="M24.8091 26.1972C24.6139 26.4315 24.7213 26.8709 24.9946 27.0076C25.2485 27.1345 28.3435 27.1931 28.7829 27.0662C29.1051 26.988 29.2418 26.5877 29.0465 26.2948C28.9 26.0605 28.8903 26.0605 26.9083 26.0605C25.2973 26.0605 24.897 26.0898 24.8091 26.1972Z" fill="#55CB29"/>
<path d="M7.26411 30.0245C6.75641 30.21 6.18037 30.747 5.94604 31.2742C5.59456 32.0553 5.78983 33.2172 6.37564 33.8616C6.4928 33.9885 6.81499 34.1935 7.07861 34.3205C8.36739 34.9258 9.83191 34.3205 10.3006 32.9829C10.613 32.0944 10.4177 31.3035 9.71475 30.6006C9.01178 29.8878 8.19164 29.6926 7.26411 30.0245ZM9.06059 31.3816C9.37302 31.7234 9.39255 31.7819 9.3535 32.2701C9.31444 32.6802 9.2461 32.8657 9.04107 33.0805C8.74816 33.3832 8.13306 33.5882 7.78158 33.5003C7.1079 33.3343 6.64901 32.5826 6.83452 31.9382C7.03955 31.2157 7.45938 30.913 8.19164 30.9716C8.65053 31.0009 8.76769 31.0594 9.06059 31.3816Z" fill="#55CB29"/>
<path d="M14.4989 30.8837C14.1669 31.0302 13.6202 31.6062 13.5225 31.9089C13.464 32.0944 13.3858 32.1139 12.6341 32.1139C11.853 32.1139 11.8042 32.1237 11.6968 32.358C11.6187 32.5435 11.6187 32.6607 11.6968 32.8462C11.8042 33.0805 11.853 33.0903 12.6341 33.0903C13.4444 33.0903 13.4542 33.0903 13.5616 33.3734C13.7178 33.7249 14.2255 34.2228 14.577 34.3498C14.7625 34.4279 17.8087 34.4572 24.0769 34.4572C33.0983 34.4572 33.3131 34.4572 33.6841 34.2619C34.0551 34.0764 34.4652 33.6175 34.5921 33.2562C34.6409 33.1196 34.7776 33.0903 35.422 33.0903C36.2519 33.0903 36.4179 33.0122 36.4179 32.6021C36.4179 32.192 36.2519 32.1139 35.422 32.1139H34.6605L34.475 31.7429C34.2504 31.2938 34.0258 31.0888 33.5572 30.8935C33.2448 30.7666 32.0634 30.747 23.9987 30.747C16.6078 30.7568 14.7332 30.7763 14.4989 30.8837ZM33.4498 32.0456C33.7525 32.3971 33.7525 32.8071 33.4498 33.1586L33.2155 33.432H24.0866H14.9578L14.7039 33.1977C14.245 32.7681 14.4305 32.0163 15.0359 31.7917C15.114 31.7624 19.2439 31.7429 24.194 31.7527L33.2155 31.7722L33.4498 32.0456Z" fill="#55CB29"/>
<path d="M36.2908 35.0234C36.1639 35.1601 36.1249 35.3944 36.1249 35.9997V36.8003H35.4024C34.6018 36.8003 34.3674 36.9272 34.3674 37.3373C34.3674 37.7083 34.7092 37.8743 35.4609 37.8743H36.1346L36.1053 39.4072L36.076 40.9498L35.3145 40.9791C34.6115 41.0084 34.5432 41.0279 34.4455 41.2427C34.3674 41.4282 34.3674 41.5454 34.4455 41.7309C34.5529 41.9652 34.6018 41.975 35.3438 41.975H36.1249V42.7951C36.1249 43.42 36.1639 43.6543 36.2811 43.7714C36.4178 43.9081 36.945 43.9277 40.6551 43.9277C45.615 43.9277 45.2049 44.0351 45.2049 42.7756V41.975H45.986C46.6499 41.975 46.7768 41.9457 46.8647 41.7895C47.1576 41.2427 46.8647 40.9986 45.9274 40.9986H45.2049V39.4365V37.8743H45.7809C46.523 37.8743 46.8452 37.7474 46.9233 37.4349C47.0404 36.9761 46.7475 36.8003 45.9176 36.8003H45.2049V35.9899C45.2049 35.3163 45.1756 35.1405 45.0291 35.0136C44.8632 34.8671 44.4238 34.8476 40.6453 34.8476C36.7009 34.8476 36.4373 34.8574 36.2908 35.0234ZM44.1309 39.4365V42.9513H40.6649H37.1988V39.4365V35.9216H40.6649H44.1309V39.4365Z" fill="#55CB29"/>
<path d="M7.51792 36.4001C6.47323 36.7223 5.7605 37.6205 5.7605 38.6164C5.7605 40.0028 6.76614 41.0377 8.09397 41.0182C9.0215 41.0085 9.65612 40.6472 10.115 39.8759C10.8668 38.5774 10.2126 36.8883 8.77741 36.4684C8.22089 36.3025 7.90846 36.2829 7.51792 36.4001ZM8.6993 37.5327C9.61707 38.0111 9.57802 39.4268 8.64072 39.8661C7.77177 40.286 6.80519 39.6709 6.80519 38.7043C6.80519 37.7279 7.83035 37.0933 8.6993 37.5327Z" fill="#55CB29"/>
<path d="M14.7137 37.2885C14.2938 37.4155 13.7764 37.8548 13.6006 38.2258L13.4347 38.5578H12.6926C11.9018 38.5578 11.6187 38.6945 11.6187 39.0752C11.6187 39.456 11.9701 39.6318 12.7219 39.6415H13.4249L13.7178 40.0906C13.8935 40.364 14.1669 40.6276 14.4012 40.7448C14.782 40.9498 14.9187 40.9498 21.138 40.9498C27.3574 40.9498 27.4941 40.9498 27.8748 40.7448C28.1092 40.6276 28.3825 40.364 28.5583 40.0906L28.8512 39.6415H29.5639C30.3157 39.6318 30.6574 39.456 30.6574 39.0655C30.6574 38.7042 30.345 38.5578 29.5639 38.5578C28.8317 38.5578 28.8219 38.5578 28.7047 38.2649C28.5388 37.8646 28.0115 37.4155 27.5624 37.2983C27.1133 37.1714 15.1237 37.1616 14.7137 37.2885ZM27.6796 38.509C27.9432 38.7726 28.0018 39.2803 27.7967 39.5439C27.5136 39.9149 27.416 39.9247 21.1478 39.9247H15.0456L14.782 39.6903C14.577 39.5146 14.5086 39.3779 14.5086 39.0948C14.5086 38.8116 14.577 38.6749 14.782 38.4992L15.0456 38.2649H21.2454H27.4452L27.6796 38.509Z" fill="#55CB29"/>
</svg>
