<svg width="50" height="56" viewBox="0 0 50 56" fill="none" xmlns="http://www.w3.org/2000/svg">
<path d="M1.79543 0.143986C1.15343 0.372498 0.598477 0.873039 0.282916 1.51504L0 2.08088V27.8263V53.5716L0.282916 54.1375C0.620239 54.8121 1.16431 55.2909 1.8716 55.5303C2.29597 55.6717 2.82916 55.6935 4.80958 55.6609C7.97606 55.6173 7.92165 55.65 9.79325 53.1037L10.6094 51.9938L22.6986 51.9829H34.7878L35.9195 53.4737C36.7573 54.5836 37.1926 55.0515 37.5843 55.3018L38.1175 55.6282H42.6986H47.2797L48.0087 55.2691C48.803 54.8774 49.358 54.3224 49.7497 53.5172L50 53.0167V27.8263V2.63583L49.7497 2.13528C49.358 1.33006 48.803 0.775108 48.0087 0.383377L47.2797 0.024292L24.7552 0.00252914C5.40805 -0.00835419 2.1654 0.0134087 1.79543 0.143986ZM43.6344 27.8263V53.8328H41.197C39.8585 53.8328 38.6725 53.8001 38.5745 53.7675C38.4766 53.724 38.1066 53.3105 37.7476 52.8426L37.0947 51.9829H38.6289H40.1741L40.4897 51.6674C40.8923 51.2539 40.914 50.7751 40.5332 50.4051L40.272 50.1331H22.6986H5.13602L4.84222 50.4813C4.49402 50.8948 4.52666 51.3627 4.96192 51.7327C5.21219 51.9721 5.33188 51.9829 6.75735 51.9829H8.28074L7.92165 52.4944C7.72579 52.7664 7.38847 53.1908 7.17084 53.4193L6.77911 53.8328H4.68988C2.5136 53.8328 2.07835 53.7566 1.91513 53.3431C1.88248 53.2452 1.84984 50.3725 1.84984 46.9666V40.7751H21.1425H40.4244L40.7943 40.5466C41.6213 40.0461 41.7845 39.5455 41.7845 37.5433C41.7845 35.9873 41.6866 35.4867 41.284 35.008C40.8379 34.4857 40.6202 34.4095 39.2818 34.3551L38.0305 34.3007L37.9761 24.1266L37.9217 13.9525L37.6496 13.4628C37.3341 12.897 36.6159 12.3203 36.0392 12.157C35.7671 12.0918 30.6964 12.0482 20.827 12.0482C4.5593 12.0482 5.4951 12.0156 4.65724 12.7011C4.43961 12.8861 4.13493 13.2778 3.98259 13.5934L3.69967 14.1592V24.2572V34.3551H2.77476H1.84984V18.3812C1.84984 1.4824 1.82807 2.22233 2.3395 1.9503C2.49184 1.86325 8.44396 1.8306 23.1012 1.81972H43.6344V27.8263ZM47.1817 2.02647C47.432 2.13528 47.7476 2.39643 47.889 2.5923L48.1502 2.96227L48.1828 27.6957C48.2046 55.4106 48.2807 52.9079 47.4102 53.4846C47.0729 53.7131 46.8118 53.7784 46.235 53.811L45.4842 53.8545V27.8371V1.81972H46.1153C46.4853 1.81972 46.9206 1.90677 47.1817 2.02647ZM35.8542 14.1701L36.1262 14.4313V24.3986V34.366L35.234 34.3333L34.3308 34.3007L34.2655 32.2332C34.2329 31.0471 34.1458 29.9808 34.0588 29.7305C33.4168 27.6848 31.7737 26.0091 29.7824 25.3671C28.988 25.1059 28.716 25.0733 27.2252 25.0624L25.5495 25.0515L25.2884 25.3562C24.951 25.7588 24.951 26.2376 25.2992 26.5749C25.5386 26.8252 25.6474 26.8469 26.5724 26.8469C28.8139 26.8578 29.8694 27.1734 30.9576 28.1745C31.3711 28.5553 31.6757 28.9688 31.9587 29.5455L32.3721 30.3725L32.4048 32.3638L32.4483 34.3551H31.5125H30.5767V32.6358C30.5767 31.0798 30.555 30.8839 30.3156 30.3834C30.185 30.0787 29.8912 29.6761 29.6627 29.4802C28.988 28.8926 28.6507 28.8056 27.0185 28.8056C25.6148 28.8056 25.5495 28.8165 25.2992 29.0776C24.951 29.4149 24.951 29.8937 25.2884 30.2854C25.5386 30.5792 25.5822 30.5901 26.9314 30.6554C28.7704 30.7316 28.7269 30.6772 28.7269 32.7882V34.3551H17.1382H5.54951V24.4204C5.54951 13.9307 5.52775 14.3007 6.03917 14.0286C6.19151 13.9416 10.5223 13.909 20.9249 13.8981H35.593L35.8542 14.1701ZM39.9347 37.5651V38.9253H20.8923H1.84984V37.5651V36.2049H20.8923H39.9347V37.5651Z" fill="#55CB29"/>
<path d="M5.64748 3.811C4.34171 4.30067 3.69971 5.2147 3.69971 6.55311C3.71059 8.03298 4.94019 9.21906 6.48534 9.21906C8.91189 9.21906 10.1197 6.33549 8.44399 4.56182C7.74759 3.82188 6.51799 3.48456 5.64748 3.811ZM7.15999 5.91111C7.91081 6.75986 6.6268 7.91329 5.82158 7.09718C5.41897 6.70545 5.45161 6.16138 5.89775 5.79142C6.31124 5.44321 6.77914 5.47586 7.15999 5.91111Z" fill="#55CB29"/>
<path d="M38.0849 3.83281C36.9859 4.18101 36.2133 5.25827 36.2024 6.44434C36.2024 7.31485 36.4744 7.92421 37.1055 8.49004C38.9119 10.1223 41.7301 8.86001 41.7084 6.44434C41.6975 5.22563 40.914 4.17013 39.7824 3.83281C39.1295 3.63694 38.7269 3.63694 38.0849 3.83281ZM39.3906 5.68264C39.7171 5.84587 39.8912 6.24848 39.8368 6.66197C39.8041 6.97753 39.3145 7.36926 38.9554 7.36926C38.5963 7.36926 38.1066 6.97753 38.074 6.66197C38.0196 6.25936 38.1937 5.85675 38.4984 5.69353C38.8792 5.48678 38.9989 5.48678 39.3906 5.68264Z" fill="#55CB29"/>
<path d="M5.27746 42.9622C4.00434 43.5934 3.41674 44.9753 3.83024 46.3681C3.91729 46.6401 4.17844 47.0319 4.51576 47.3801C5.79977 48.6967 7.73666 48.5009 8.78127 46.9448C9.67354 45.6173 9.18388 43.7675 7.73666 43.0275C6.98584 42.6576 5.95211 42.6249 5.27746 42.9622ZM6.90967 44.6489C7.18171 44.7577 7.4211 45.3235 7.34493 45.6717C7.18171 46.3899 6.28943 46.6293 5.81065 46.0634C5.14689 45.3017 5.94123 44.2789 6.90967 44.6489Z" fill="#55CB29"/>
<path d="M37.8128 42.9405C35.7236 43.9089 35.6365 46.7925 37.6604 47.9024C39.4776 48.8926 41.6974 47.5759 41.7083 45.5194C41.7192 44.3877 41.0881 43.3866 40.0979 42.9405C39.5103 42.6684 38.3895 42.6684 37.8128 42.9405ZM39.5756 44.8229C39.7388 44.9753 39.8258 45.182 39.8258 45.4214C39.8258 45.9437 39.6735 46.1831 39.2382 46.3246C38.9336 46.4225 38.803 46.4116 38.5418 46.2811C38.1828 46.0961 38.0848 45.9111 38.0848 45.4214C38.0848 44.6815 39.0206 44.3006 39.5756 44.8229Z" fill="#55CB29"/>
<path d="M7.8889 15.8784C7.06191 16.3572 7.35571 17.6086 8.29151 17.5977C8.69412 17.5868 8.93351 17.4454 9.11849 17.0863C9.32524 16.7054 9.27083 16.4008 8.93351 16.0634C8.59619 15.737 8.24798 15.6717 7.8889 15.8784Z" fill="#55CB29"/>
<path d="M14.4505 15.8567C12.7095 16.1287 11.197 16.934 9.83684 18.2941C9.00985 19.132 8.77046 19.4585 8.34609 20.3181C7.71497 21.5912 7.50822 22.3529 7.43205 23.6913C7.12737 28.762 11.567 32.9623 16.6159 32.3855C18.542 32.1679 20.0436 31.4715 21.4582 30.1222C22.481 29.1538 23.1992 28.0548 23.6453 26.7599C23.9174 25.9546 23.9826 25.6064 24.0262 24.453C24.0697 23.3105 24.0371 22.9405 23.8412 22.1788C22.9163 18.5118 19.826 15.9655 16.1045 15.8023C15.5387 15.7805 14.7879 15.8023 14.4505 15.8567ZM15.2014 18.3594C15.3646 18.762 15.4408 19.1973 15.4516 19.6761V20.3943L14.962 20.5031L14.4614 20.6119L13.7868 19.9372C13.4168 19.5673 12.8945 19.1538 12.6442 19.0232C12.2743 18.8382 12.1981 18.7512 12.296 18.6423C12.5354 18.3377 14.2873 17.6957 14.7443 17.7392C14.8967 17.7501 15.0273 17.9351 15.2014 18.3594ZM18.5528 18.305C19.7933 18.9253 19.7715 18.8817 19.4342 19.6326C19.271 19.9808 18.9119 20.4922 18.6399 20.7751L18.1393 21.2756L17.7258 21.0036L17.3015 20.7207V19.8393C17.3015 19.3496 17.2362 18.6859 17.1491 18.3703L16.9968 17.7936L17.3994 17.8589C17.617 17.8915 18.1393 18.0874 18.5528 18.305ZM11.2949 20.4269C11.8717 20.6881 12.4484 21.1233 12.6769 21.4715C12.8401 21.7218 12.8292 21.7653 12.6007 22.1679L12.3504 22.6032L11.752 22.5379C11.2188 22.4835 10.5006 22.5596 9.65186 22.7664L9.35806 22.8426L9.53216 22.2659C9.82596 21.2974 10.4353 20.2093 10.6965 20.2093C10.7726 20.2093 11.0338 20.3072 11.2949 20.4269ZM21.8608 22.0482C22.2307 23.2561 22.2307 23.2669 21.5452 23.5499C21.0882 23.7457 20.7726 23.7892 20.185 23.7675L19.4342 23.7457L19.3363 23.2669C19.2384 22.7882 19.2492 22.7882 19.7389 22.3638C20.0109 22.1353 20.4353 21.6238 20.6965 21.2321L21.1535 20.5248L21.3929 20.9274C21.5235 21.1451 21.7411 21.6456 21.8608 22.0482ZM16.4636 22.4291C16.975 22.6467 17.3776 23.1255 17.53 23.7022C17.9544 25.2909 16.061 26.564 14.6899 25.6173C13.7541 24.9862 13.6562 23.5281 14.4941 22.7446C14.9946 22.2767 15.7998 22.1462 16.4636 22.4291ZM11.8173 24.4095C11.9696 24.453 12.0675 24.6054 12.1437 24.9209C12.2416 25.3779 12.2416 25.3779 11.6323 25.9764C11.2949 26.3028 10.8706 26.836 10.6965 27.1625L10.3591 27.7392L10.185 27.478C9.90213 27.0428 9.46687 25.8894 9.40158 25.3997C9.33629 24.9427 9.33629 24.9318 9.78243 24.725C10.4788 24.4204 11.3385 24.2789 11.8173 24.4095ZM21.9805 25.8785C21.8281 26.4334 21.3385 27.4454 21.0229 27.8262L20.8162 28.0874L20.1198 27.7501C19.7389 27.5542 19.2384 27.206 19.0099 26.9775L18.5855 26.5422L18.8357 26.107L19.0969 25.6608H20.0762C20.6094 25.6608 21.2732 25.5956 21.5452 25.5085C21.8173 25.4323 22.0458 25.367 22.0675 25.3888C22.0893 25.3997 22.0458 25.6173 21.9805 25.8785ZM13.8412 27.2604L14.2329 27.5107L14.1785 28.1527C14.1241 28.7185 14.2656 29.8284 14.4397 30.2963C14.4941 30.4378 14.4397 30.4487 14.135 30.3943C13.6127 30.2854 11.9696 29.4693 11.8934 29.2844C11.7846 28.9906 12.1981 28.1527 12.7531 27.5433C13.0577 27.2169 13.3298 26.9666 13.3733 26.9775C13.4059 26.9993 13.6127 27.1298 13.8412 27.2604ZM17.5735 28.1636C17.8782 28.4682 18.4005 28.9035 18.7378 29.132L19.3581 29.5455L18.6834 29.8719C18.1176 30.1549 16.9206 30.5466 16.6377 30.5466C16.4745 30.5466 16.0828 29.3823 16.0284 28.7076C15.9522 27.8262 16.0284 27.7392 16.9206 27.6195C16.9859 27.6195 17.2797 27.8589 17.5735 28.1636Z" fill="#55CB29"/>
<path d="M23.493 16.0635C23.0904 16.477 23.0795 16.9231 23.4603 17.3149C24.0588 17.9133 25.0272 17.4781 25.0272 16.6184C25.0272 16.292 24.4505 15.7479 24.1023 15.7479C23.9282 15.7479 23.6888 15.8785 23.493 16.0635Z" fill="#55CB29"/>
<path d="M29.8694 15.9003C29.4232 16.107 28.9662 16.6184 28.8356 17.0646C28.7703 17.2604 28.7268 18.5771 28.7268 19.9699C28.7268 22.0047 28.7595 22.5814 28.89 22.897C29.3035 23.8654 29.8476 24.1157 31.5668 24.1266C32.6768 24.1266 32.8835 24.0939 33.3079 23.8763C33.6017 23.7131 33.8846 23.4628 34.0369 23.1908C34.2763 22.7773 34.2763 22.7011 34.2546 19.8284C34.2219 16.9231 34.2219 16.8905 33.9608 16.5205C33.5255 15.9111 33.0032 15.7479 31.5016 15.7588C30.6528 15.7588 30.087 15.8023 29.8694 15.9003ZM32.4265 19.9373V22.2768H31.5016H30.5766V19.9373V17.5978H31.5016H32.4265V19.9373Z" fill="#55CB29"/>
<path d="M7.73674 31.8089C7.47558 32.0265 7.39941 32.1788 7.39941 32.4617C7.39941 33.4302 8.66166 33.724 9.11867 32.8644C9.32542 32.4835 9.27101 32.1788 8.93369 31.8415C8.54196 31.4498 8.17199 31.4389 7.73674 31.8089Z" fill="#55CB29"/>
<path d="M23.493 31.8415C22.7421 32.6032 23.5147 33.7022 24.5376 33.3104C24.7443 33.2234 25.0272 32.712 25.0272 32.3964C25.0272 32.0591 24.4505 31.5259 24.1023 31.5259C23.9282 31.5259 23.6888 31.6565 23.493 31.8415Z" fill="#55CB29"/>
</svg>
