<svg width="20" height="20" viewBox="0 0 20 20" fill="none" xmlns="http://www.w3.org/2000/svg">
<path opacity="0.798" fill-rule="evenodd" clip-rule="evenodd" d="M14.905 0C16.9978 0.393589 18.6806 1.51551 19.9535 3.36565C20.2203 5.5541 19.3388 7.15678 17.3091 8.17373C15.3859 6.57106 13.6229 4.80808 12.0202 2.88485C12.8448 1.73966 13.8064 0.778043 14.905 0Z" fill="#2689F9"/>
<path opacity="0.849" fill-rule="evenodd" clip-rule="evenodd" d="M10.5778 3.84644C12.615 5.15813 14.4582 6.76085 16.1071 8.65451C16.4276 8.97507 16.4276 9.29557 16.1071 9.61613C13.3024 12.4208 10.4976 15.2256 7.69292 18.0303C5.38812 19.1746 2.98409 19.8157 0.480808 19.9535C0.212277 19.6051 0.0520234 19.2043 0 18.7515C0.578075 16.6165 1.29929 14.5331 2.16363 12.501C5.06589 9.67931 7.87058 6.79446 10.5778 3.84644Z" fill="#2689F9"/>
</svg>
