<svg width="50" height="44" viewBox="0 0 50 44" fill="none" xmlns="http://www.w3.org/2000/svg">
<path d="M7.82932 0.0862808C7.61371 0.140182 7.24717 0.26955 7.02078 0.388138C6.11521 0.851704 5.91038 1.19668 2.90259 7.62192L0.0457326 13.713L0.0133908 27.3396C-0.018951 42.4109 -0.0512928 41.6239 0.671007 42.5726C1.19926 43.2733 1.89999 43.6938 2.76244 43.8339C3.29069 43.931 9.54344 43.9525 25.434 43.931C46.3699 43.8986 47.3941 43.8878 47.8792 43.7046C48.5907 43.4243 49.3023 42.7559 49.658 42.0336L49.9599 41.4191L49.9922 27.8894C50.0138 18.3378 49.9922 14.2196 49.906 13.8747C49.8413 13.6051 48.5153 10.6836 46.9737 7.38474C43.9228 0.873264 43.8796 0.819363 42.7908 0.301891L42.1979 0.0215988L25.2184 3.43323e-05C15.5374 3.43323e-05 8.06649 0.0323792 7.82932 0.0862808ZM42.3272 1.97289C42.5536 2.14537 43.1465 3.2989 44.7636 6.71635C45.9279 9.19588 46.8874 11.2334 46.8874 11.255C46.8874 11.2765 37.0447 11.2873 25.0028 11.2873C12.9609 11.2873 3.1182 11.2658 3.1182 11.2442C3.1182 11.0933 7.34419 2.28552 7.49512 2.11303C7.60293 1.99445 7.82932 1.86508 8.01259 1.81118C8.20664 1.74649 15.4512 1.71415 25.1861 1.72493L42.0254 1.74649L42.3272 1.97289ZM47.696 13.3356C48.3212 13.907 48.2889 13.1847 48.2889 27.5876C48.2889 40.5998 48.2889 40.8801 48.0733 41.3113C47.9547 41.5484 47.7067 41.8395 47.5127 41.9581C47.1569 42.1737 46.8874 42.1737 25.0028 42.1737C3.1182 42.1737 2.84869 42.1737 2.49293 41.9581C2.29888 41.8395 2.05092 41.5484 1.93234 41.3113C1.71672 40.8801 1.71672 40.5998 1.71672 27.5876C1.71672 13.0553 1.68438 13.8747 2.35278 13.3033L2.70854 13.0122L25.0567 13.0338L47.4049 13.0661L47.696 13.3356Z" fill="#55CB29"/>
<path d="M3.75453 14.6185C3.45268 14.9204 3.44189 14.9743 3.44189 15.9769C3.44189 16.9363 3.46346 17.0334 3.71141 17.2705C3.87312 17.443 4.09951 17.54 4.30434 17.54C4.50917 17.54 4.73557 17.443 4.89727 17.2705C5.14523 17.0334 5.16679 16.9363 5.16679 15.9769C5.16679 14.9743 5.15601 14.9204 4.85415 14.6185C4.68166 14.446 4.43371 14.3059 4.30434 14.3059C4.17497 14.3059 3.92702 14.446 3.75453 14.6185Z" fill="#55CB29"/>
<path d="M45.1517 14.6185C44.8499 14.9204 44.8391 14.9743 44.8391 15.9769C44.8391 16.9363 44.8607 17.0334 45.1086 17.2705C45.2703 17.443 45.4967 17.54 45.7016 17.54C45.9064 17.54 46.1328 17.443 46.2945 17.2705C46.5424 17.0334 46.564 16.9363 46.564 15.9769C46.564 14.9743 46.5532 14.9204 46.2514 14.6185C46.0789 14.446 45.8309 14.3059 45.7016 14.3059C45.5722 14.3059 45.3242 14.446 45.1517 14.6185Z" fill="#55CB29"/>
<path d="M32.2259 16.7962C30.0374 17.1628 27.9891 18.23 26.3397 19.8579C23.569 22.5962 22.5018 26.4556 23.4397 30.2288C23.9248 32.1586 24.8843 33.8188 26.3397 35.2849C27.698 36.6541 29.1534 37.5057 31.1155 38.0879C32.4091 38.476 34.6731 38.573 35.9991 38.3035C38.3708 37.8184 40.2574 36.7942 41.8745 35.1017C45.4644 31.3392 45.928 25.895 43.0388 21.4319C42.4351 20.494 40.6994 18.8553 39.686 18.2516C38.5649 17.5832 37.1526 17.055 35.9452 16.8393C34.921 16.6668 33.1746 16.6453 32.2259 16.7962ZM35.7619 18.575C36.9478 18.823 38.0797 19.2865 39.0608 19.9226L39.9016 20.4724L39.1686 21.2163L38.4355 21.9493L38.1121 21.7337C37.476 21.3025 36.1931 20.7527 35.4816 20.6018C33.6166 20.2137 31.3526 20.6665 29.9835 21.7122L29.617 21.9925L28.8623 21.2378L28.1077 20.4832L28.9486 19.9226C29.8973 19.3081 31.1694 18.7691 32.2259 18.5642C33.2069 18.3702 34.7809 18.3702 35.7619 18.575ZM27.6657 22.4129C28.043 22.7794 28.3449 23.1244 28.3449 23.1675C28.3449 23.2107 28.1508 23.5449 27.9244 23.9222C26.5553 26.1214 26.5553 29.0106 27.9244 31.2853L28.3664 32.0076L27.6872 32.6976C27.3099 33.0749 26.9649 33.3876 26.9326 33.3876C26.7817 33.3876 25.8545 31.8783 25.5527 31.1344C24.5716 28.7842 24.6148 26.0352 25.6605 23.7928C25.9623 23.1244 26.8356 21.7445 26.9434 21.7445C26.9649 21.7445 27.2991 22.0464 27.6657 22.4129ZM41.7128 22.5746C42.6399 24.0192 43.2221 25.9382 43.2221 27.566C43.2221 28.4932 42.931 29.9593 42.5645 30.908C42.2518 31.7381 41.2708 33.3876 41.0875 33.3876C41.0444 33.3876 40.6994 33.0749 40.3221 32.6976L39.6321 31.9969L39.9663 31.4794C40.7641 30.2288 41.1091 29.0538 41.1091 27.566C41.1091 26.0783 40.7641 24.9032 39.9663 23.6527L39.6321 23.1352L40.3221 22.4345C40.6994 22.0571 41.0444 21.7445 41.0983 21.7445C41.1414 21.7445 41.4217 22.1218 41.7128 22.5746ZM35.2983 22.3374C35.6433 22.4345 36.2147 22.6609 36.5597 22.8441L37.1957 23.1783L36.4519 23.933L35.708 24.6768L35.3415 24.4828C35.0612 24.3211 34.7485 24.278 34.0047 24.278C33.2608 24.278 32.9482 24.3211 32.6679 24.4828L32.3013 24.6768L31.5575 23.933L30.8136 23.1783L31.4497 22.8441C32.6679 22.1865 34.037 22.014 35.2983 22.3374ZM30.3716 25.1188L31.0508 25.8088L30.8352 26.4664C30.7058 26.833 30.6088 27.3289 30.6088 27.566C30.6088 27.8032 30.7058 28.2991 30.8352 28.6657L31.0508 29.3233L30.3716 30.0132C30.0051 30.3798 29.6601 30.6924 29.617 30.6924C29.4445 30.6924 28.7761 29.0861 28.6683 28.3854C28.5389 27.5876 28.5928 27.0054 28.8515 26.0567C29.0132 25.4638 29.5092 24.4397 29.6277 24.4397C29.6709 24.4397 30.0051 24.7523 30.3716 25.1188ZM38.9637 25.4423C39.3626 26.3047 39.5028 27.4474 39.3518 28.3961C39.2225 29.14 38.5756 30.6924 38.4031 30.6924C38.3492 30.6924 38.0043 30.3798 37.6377 30.0132L36.9585 29.3233L37.1742 28.6657C37.4545 27.8463 37.4545 27.2534 37.1849 26.488L36.9801 25.895L37.6916 25.1727C38.511 24.3534 38.4678 24.3426 38.9637 25.4423ZM34.8887 26.1753C35.3199 26.4448 35.6757 27.0917 35.6757 27.5876C35.6757 28.0619 35.266 28.7519 34.8456 28.9999C34.6407 29.1184 34.285 29.2047 34.0047 29.2047C33.3794 29.2047 32.8835 28.9136 32.5816 28.3638C32.269 27.8248 32.269 27.4151 32.5816 26.8114C33.0021 25.9813 34.0909 25.6794 34.8887 26.1753ZM34.0047 30.9404C34.3928 30.9404 34.8671 30.8541 35.2121 30.7247L35.7619 30.5091L36.4842 31.2314L37.2065 31.9645L36.7322 32.2448C35.7942 32.7946 35.3846 32.8916 34.0047 32.8916C32.6247 32.8916 32.2151 32.7946 31.2772 32.2448L30.8028 31.9645L31.5251 31.2314L32.2474 30.5091L32.7972 30.7247C33.1422 30.8541 33.6166 30.9404 34.0047 30.9404ZM30.8783 33.9266C32.021 34.4872 32.8188 34.6812 34.0047 34.6812C35.5032 34.6812 36.8507 34.2823 37.9719 33.5061L38.4463 33.1827L39.1686 33.9158L39.9016 34.6489L39.3626 35.037C38.6942 35.5329 37.2173 36.2444 36.3764 36.4708C36.0206 36.5678 35.1366 36.6756 34.4251 36.6972C32.8943 36.7619 31.7623 36.5786 30.5225 36.0611C29.6601 35.7054 28.237 34.8106 28.237 34.6381C28.237 34.5734 28.5389 34.2177 28.9054 33.8511C29.5415 33.2151 29.5846 33.1827 29.8002 33.3337C29.9188 33.4307 30.4039 33.6894 30.8783 33.9266Z" fill="#55CB29"/>
<path d="M8.69151 18.6397C8.59449 18.7152 7.93687 19.5453 7.22535 20.494C6.20119 21.8308 5.9209 22.2728 5.9209 22.5423C5.9209 22.801 6.20119 23.243 7.24691 24.6014C7.96921 25.5501 8.68073 26.3802 8.83166 26.4557C9.21976 26.6497 17.2836 26.6497 17.6717 26.4557C17.8119 26.3802 18.5234 25.5393 19.2565 24.5798C20.216 23.3077 20.5825 22.7364 20.5825 22.5207C20.5825 22.3051 20.216 21.7445 19.2673 20.4832C18.5342 19.5237 17.8335 18.6936 17.6933 18.6289C17.316 18.4457 8.92868 18.4672 8.69151 18.6397ZM17.7796 21.378L18.6528 22.5207L17.758 23.6958L16.8632 24.8709H13.2409H9.61864L8.8101 23.8144C8.36809 23.243 7.96921 22.704 7.92609 22.6393C7.88297 22.5531 8.10936 22.1542 8.51902 21.6152C9.68333 20.052 9.06883 20.2353 13.2625 20.2353H16.9063L17.7796 21.378Z" fill="#55CB29"/>
<path d="M11.2576 21.0114C10.8264 21.2378 10.7725 21.4319 10.7725 22.5638C10.7725 23.6311 10.7832 23.6742 11.0528 23.8898C11.4301 24.1809 11.7643 24.1809 12.1308 23.8683C12.3895 23.6419 12.4219 23.5233 12.4758 22.801C12.5405 21.7984 12.3788 21.2594 11.9583 21.0438C11.5918 20.8497 11.5379 20.8497 11.2576 21.0114Z" fill="#55CB29"/>
<path d="M14.7073 21.0114C14.2761 21.2378 14.2222 21.4319 14.2222 22.5638C14.2222 23.6311 14.2329 23.6742 14.5025 23.8898C14.8798 24.1809 15.214 24.1809 15.5805 23.8683C15.8393 23.6419 15.8716 23.5233 15.9255 22.801C15.9902 21.7984 15.8285 21.2594 15.408 21.0438C15.0415 20.8497 14.9876 20.8497 14.7073 21.0114Z" fill="#55CB29"/>
<path d="M8.34681 29.5496C8.17432 29.6359 7.9048 29.8084 7.76465 29.9377C7.29031 30.3905 7.21484 30.7786 7.21484 32.6329C7.21484 34.5842 7.32265 34.9723 7.99105 35.4574L8.34681 35.7054L13.1226 35.7377C17.7906 35.77 17.9092 35.7593 18.2973 35.5436C18.5237 35.4143 18.8255 35.1448 18.9657 34.9291C19.2244 34.541 19.2352 34.4871 19.2352 32.5682V30.6061L18.901 30.1857C18.2542 29.3771 18.3943 29.3987 13.252 29.3987C9.65126 29.4095 8.60554 29.4418 8.34681 29.5496ZM12.3895 32.579V34.0344H10.6646H8.93974V32.579V31.1236H10.6646H12.3895V32.579ZM17.5642 32.579V34.0344H15.8393H14.1144V32.579V31.1236H15.8393H17.5642V32.579Z" fill="#55CB29"/>
<path d="M3.75453 37.9046C3.45268 38.2064 3.44189 38.2603 3.44189 39.2629C3.44189 40.2224 3.46346 40.3194 3.71141 40.5566C3.87312 40.7291 4.09951 40.8261 4.30434 40.8261C4.50917 40.8261 4.73557 40.7291 4.89727 40.5566C5.14523 40.3194 5.16679 40.2224 5.16679 39.2629C5.16679 38.2603 5.15601 38.2064 4.85415 37.9046C4.45527 37.5057 4.15341 37.5057 3.75453 37.9046Z" fill="#55CB29"/>
<path d="M45.1517 37.9046C44.8499 38.2064 44.8391 38.2603 44.8391 39.2629C44.8391 40.2224 44.8607 40.3194 45.1086 40.5566C45.2703 40.7291 45.4967 40.8261 45.7016 40.8261C45.9064 40.8261 46.1328 40.7291 46.2945 40.5566C46.5424 40.3194 46.564 40.2224 46.564 39.2629C46.564 38.2603 46.5532 38.2064 46.2514 37.9046C45.8525 37.5057 45.5506 37.5057 45.1517 37.9046Z" fill="#55CB29"/>
</svg>
