<svg width="50" height="21" viewBox="0 0 50 21" fill="none" xmlns="http://www.w3.org/2000/svg">
<path opacity="0.95" fill-rule="evenodd" clip-rule="evenodd" d="M50 0.39071C50 3.12509 50 5.85946 50 8.59384C49.9156 8.70985 49.818 8.82382 49.707 8.93563C49.3767 9.02108 49.0512 9.11874 48.7305 9.2286C48.3323 10.1031 48.6253 10.5589 49.6094 10.5958C49.7271 10.7302 49.8572 10.844 50 10.9376C50 13.2162 50 15.4949 50 17.7735C49.8525 17.904 49.6897 18.018 49.5117 18.1153C48.8289 18.1641 48.1453 18.1804 47.4609 18.1641C47.4771 18.8485 47.4609 19.5321 47.4121 20.2149C47.3308 20.4265 47.1843 20.573 46.9727 20.6544C39.7786 20.7195 32.5847 20.7195 25.3906 20.6544C25.179 20.573 25.0325 20.4265 24.9512 20.2149C24.9023 19.5321 24.8861 18.8485 24.9023 18.1641C24.1862 18.1641 23.47 18.1641 22.7539 18.1641C22.7701 18.881 22.7539 19.5972 22.7051 20.3126C22.5865 20.4639 22.44 20.5777 22.2656 20.6544C15.9505 20.7195 9.63542 20.7195 3.32031 20.6544C3.10872 20.573 2.96224 20.4265 2.88086 20.2149C2.83207 19.5321 2.81579 18.8485 2.83203 18.1641C2.05011 18.1804 1.26886 18.1641 0.488281 18.1153C0.310248 18.018 0.147487 17.904 0 17.7735C0 15.4949 0 13.2162 0 10.9376C0.321406 10.6269 0.712031 10.4479 1.17188 10.4005C1.52491 10.0432 1.55747 9.65253 1.26953 9.2286C0.948872 9.11874 0.623352 9.02108 0.292969 8.93563C0.181994 8.82382 0.0843381 8.70985 0 8.59384C0 5.85946 0 3.12509 0 0.39071C0.142734 0.297156 0.272942 0.183289 0.390625 0.0489136C16.7969 -0.0162231 33.2031 -0.0162231 49.6094 0.0489136C49.7271 0.183289 49.8572 0.297156 50 0.39071ZM1.5625 1.66024C17.1875 1.66024 32.8125 1.66024 48.4375 1.66024C48.4538 3.61366 48.4375 5.56678 48.3887 7.51962C46.8404 8.35555 46.4498 9.56005 47.2168 11.1329C47.5187 11.516 47.8932 11.809 48.3398 12.0118C48.4374 13.5078 48.47 15.0052 48.4375 16.504C32.8125 16.504 17.1875 16.504 1.5625 16.504C1.53001 15.0052 1.56256 13.5078 1.66016 12.0118C3.00828 11.3031 3.44773 10.2289 2.97852 8.78915C2.67749 8.19501 2.22177 7.77186 1.61133 7.51962C1.5625 5.56678 1.54623 3.61366 1.5625 1.66024ZM5.66406 4.10165C6.05469 4.10165 6.44531 4.10165 6.83594 4.10165C6.83594 6.54305 6.83594 8.98446 6.83594 11.4259C6.44531 11.4259 6.05469 11.4259 5.66406 11.4259C5.66406 8.98446 5.66406 6.54305 5.66406 4.10165ZM11.9141 4.10165C12.3047 4.10165 12.6953 4.10165 13.0859 4.10165C13.0859 6.54305 13.0859 8.98446 13.0859 11.4259C12.6953 11.4259 12.3047 11.4259 11.9141 11.4259C11.9141 8.98446 11.9141 6.54305 11.9141 4.10165ZM18.1641 4.10165C18.5547 4.10165 18.9453 4.10165 19.3359 4.10165C19.3359 6.54305 19.3359 8.98446 19.3359 11.4259C18.9453 11.4259 18.5547 11.4259 18.1641 11.4259C18.1641 8.98446 18.1641 6.54305 18.1641 4.10165ZM24.4141 4.10165C24.8047 4.10165 25.1953 4.10165 25.5859 4.10165C25.5859 6.54305 25.5859 8.98446 25.5859 11.4259C25.1953 11.4259 24.8047 11.4259 24.4141 11.4259C24.4141 8.98446 24.4141 6.54305 24.4141 4.10165ZM30.6641 4.10165C31.0547 4.10165 31.4453 4.10165 31.8359 4.10165C31.8359 6.54305 31.8359 8.98446 31.8359 11.4259C31.4453 11.4259 31.0547 11.4259 30.6641 11.4259C30.6641 8.98446 30.6641 6.54305 30.6641 4.10165ZM36.9141 4.10165C37.3047 4.10165 37.6953 4.10165 38.0859 4.10165C38.0859 6.54305 38.0859 8.98446 38.0859 11.4259C37.6953 11.4259 37.3047 11.4259 36.9141 11.4259C36.9141 8.98446 36.9141 6.54305 36.9141 4.10165ZM43.1641 4.10165C43.5547 4.10165 43.9453 4.10165 44.3359 4.10165C44.3359 6.54305 44.3359 8.98446 44.3359 11.4259C43.9453 11.4259 43.5547 11.4259 43.1641 11.4259C43.1641 8.98446 43.1641 6.54305 43.1641 4.10165ZM4.49219 18.1641C10.0261 18.1641 15.5599 18.1641 21.0938 18.1641C21.0938 18.4571 21.0938 18.7501 21.0938 19.0431C15.5599 19.0431 10.0261 19.0431 4.49219 19.0431C4.49219 18.7501 4.49219 18.4571 4.49219 18.1641ZM26.5625 18.1641C32.9753 18.1641 39.388 18.1641 45.8008 18.1641C45.8008 18.4571 45.8008 18.7501 45.8008 19.0431C39.388 19.0431 32.9753 19.0431 26.5625 19.0431C26.5625 18.7501 26.5625 18.4571 26.5625 18.1641Z" fill="#4BAE27"/>
<path opacity="0.941" fill-rule="evenodd" clip-rule="evenodd" d="M4.58985 2.44142C5.66455 2.42511 6.73877 2.44142 7.8125 2.49025C8.07927 2.52912 8.2583 2.6756 8.34961 2.9297C8.50949 6.05001 8.54204 9.17501 8.44727 12.3047C8.42461 12.6209 8.27813 12.8651 8.00781 13.0371C6.80339 13.1023 5.59896 13.1023 4.39453 13.0371C4.2806 12.9232 4.16667 12.8093 4.05274 12.6953C3.98763 9.44015 3.98763 6.18488 4.05274 2.9297C4.16079 2.67453 4.33984 2.51173 4.58985 2.44142ZM5.66406 4.10158C5.66406 6.54298 5.66406 8.98439 5.66406 11.4258C6.05469 11.4258 6.44531 11.4258 6.83594 11.4258C6.83594 8.98439 6.83594 6.54298 6.83594 4.10158C6.44531 4.10158 6.05469 4.10158 5.66406 4.10158Z" fill="#4BAE27"/>
<path opacity="0.94" fill-rule="evenodd" clip-rule="evenodd" d="M10.8399 2.44142C11.9146 2.42511 12.9888 2.44142 14.0625 2.49025C14.4043 2.5716 14.6159 2.78322 14.6973 3.12501C14.7624 6.25001 14.7624 9.37501 14.6973 12.5C14.6304 12.7497 14.4839 12.9288 14.2578 13.0371C13.0534 13.1023 11.849 13.1023 10.6446 13.0371C10.5306 12.9232 10.4167 12.8093 10.3028 12.6953C10.2376 9.44015 10.2376 6.18488 10.3028 2.9297C10.4348 2.71007 10.6138 2.54728 10.8399 2.44142ZM11.9141 4.10158C11.9141 6.54298 11.9141 8.98439 11.9141 11.4258C12.3047 11.4258 12.6953 11.4258 13.086 11.4258C13.086 8.98439 13.086 6.54298 13.086 4.10158C12.6953 4.10158 12.3047 4.10158 11.9141 4.10158Z" fill="#4BAE27"/>
<path opacity="0.94" fill-rule="evenodd" clip-rule="evenodd" d="M17.0899 2.44142C18.1646 2.42511 19.2388 2.44142 20.3125 2.49025C20.6126 2.56242 20.8242 2.74142 20.9473 3.02736C21.0124 6.18488 21.0124 9.34249 20.9473 12.5C20.9084 12.7668 20.7619 12.9458 20.5078 13.0371C19.336 13.1023 18.1641 13.1023 16.9922 13.0371C16.7806 12.9558 16.6341 12.8093 16.5528 12.5977C16.4876 9.37501 16.4876 6.15236 16.5528 2.9297C16.6901 2.71056 16.8691 2.54787 17.0899 2.44142ZM18.1641 4.10158C18.1641 6.54298 18.1641 8.98439 18.1641 11.4258C18.5547 11.4258 18.9453 11.4258 19.336 11.4258C19.336 8.98439 19.336 6.54298 19.336 4.10158C18.9453 4.10158 18.5547 4.10158 18.1641 4.10158Z" fill="#4BAE27"/>
<path opacity="0.94" fill-rule="evenodd" clip-rule="evenodd" d="M23.3399 2.44142C24.4146 2.42511 25.4888 2.44142 26.5625 2.49025C26.8626 2.56242 27.0742 2.74142 27.1973 3.02736C27.2624 6.21749 27.2624 9.40753 27.1973 12.5977C27.1159 12.8093 26.9695 12.9558 26.7578 13.0371C25.586 13.1023 24.4141 13.1023 23.2422 13.0371C23.0306 12.9558 22.8841 12.8093 22.8028 12.5977C22.7376 9.40753 22.7376 6.21749 22.8028 3.02736C22.9356 2.78097 23.1146 2.58566 23.3399 2.44142ZM24.4141 4.10158C24.4141 6.54298 24.4141 8.98439 24.4141 11.4258C24.8047 11.4258 25.1953 11.4258 25.586 11.4258C25.586 8.98439 25.586 6.54298 25.586 4.10158C25.1953 4.10158 24.8047 4.10158 24.4141 4.10158Z" fill="#4BAE27"/>
<path opacity="0.94" fill-rule="evenodd" clip-rule="evenodd" d="M29.6875 2.44142C30.7622 2.42511 31.8365 2.44142 32.9102 2.49025C33.1484 2.56583 33.3275 2.71232 33.4473 2.9297C33.5124 6.15236 33.5124 9.37501 33.4473 12.5977C33.3659 12.8093 33.2195 12.9558 33.0078 13.0371C31.836 13.1023 30.6641 13.1023 29.4922 13.0371C29.2381 12.9458 29.0916 12.7668 29.0528 12.5C28.9876 9.34249 28.9876 6.18488 29.0528 3.02736C29.193 2.74005 29.4046 2.54474 29.6875 2.44142ZM30.6641 4.10158C30.6641 6.54298 30.6641 8.98439 30.6641 11.4258C31.0547 11.4258 31.4453 11.4258 31.836 11.4258C31.836 8.98439 31.836 6.54298 31.836 4.10158C31.4453 4.10158 31.0547 4.10158 30.6641 4.10158Z" fill="#4BAE27"/>
<path opacity="0.94" fill-rule="evenodd" clip-rule="evenodd" d="M35.9375 2.44142C37.0122 2.42511 38.0865 2.44142 39.1602 2.49025C39.4099 2.55714 39.589 2.70363 39.6973 2.9297C39.7624 6.18488 39.7624 9.44015 39.6973 12.6953C39.5833 12.8093 39.4695 12.9232 39.3555 13.0371C38.1511 13.1023 36.9466 13.1023 35.7422 13.0371C35.5161 12.9288 35.3697 12.7497 35.3028 12.5C35.2376 9.37501 35.2376 6.25001 35.3028 3.12501C35.4022 2.78175 35.6138 2.55392 35.9375 2.44142ZM36.9141 4.10158C36.9141 6.54298 36.9141 8.98439 36.9141 11.4258C37.3047 11.4258 37.6953 11.4258 38.086 11.4258C38.086 8.98439 38.086 6.54298 38.086 4.10158C37.6953 4.10158 37.3047 4.10158 36.9141 4.10158Z" fill="#4BAE27"/>
<path opacity="0.942" fill-rule="evenodd" clip-rule="evenodd" d="M42.1876 2.44142C43.2624 2.42511 44.3366 2.44142 45.4103 2.49025C45.66 2.55714 45.8391 2.70363 45.9474 2.9297C46.0126 6.18488 46.0126 9.44015 45.9474 12.6953C45.8335 12.8093 45.7196 12.9232 45.6056 13.0371C44.4012 13.1023 43.1967 13.1023 41.9923 13.0371C41.8784 12.9232 41.7645 12.8093 41.6505 12.6953C41.4907 9.57501 41.4582 6.45001 41.5529 3.32033C41.5781 2.87501 41.7896 2.58204 42.1876 2.44142ZM43.1642 4.10158C43.1642 6.54298 43.1642 8.98439 43.1642 11.4258C43.5548 11.4258 43.9455 11.4258 44.3361 11.4258C44.3361 8.98439 44.3361 6.54298 44.3361 4.10158C43.9455 4.10158 43.5548 4.10158 43.1642 4.10158Z" fill="#4BAE27"/>
</svg>
