<svg width="50" height="63" viewBox="0 0 50 63" fill="none" xmlns="http://www.w3.org/2000/svg">
<path opacity="0.953" fill-rule="evenodd" clip-rule="evenodd" d="M2.31707 0C17.439 0 32.561 0 47.6829 0C48.8716 0.396363 49.6235 1.20937 49.939 2.43902C50.0203 21.626 50.0203 40.813 49.939 60C49.6235 61.2296 48.8716 62.0426 47.6829 62.439C32.561 62.439 17.439 62.439 2.31707 62.439C1.12847 62.0426 0.376442 61.2296 0.0609786 60C-0.0203262 48.1707 -0.0203262 36.3414 0.0609786 24.5122C0.514844 23.9002 1.06362 23.7986 1.70732 24.2073C1.78364 24.2988 1.84461 24.4005 1.89025 24.5122C1.95122 33.2113 1.97155 41.9105 1.95122 50.6097C2.68405 50.5895 3.41576 50.6098 4.14634 50.6707C4.89612 50.7287 5.36361 51.115 5.54878 51.8292C5.63008 52.9268 5.63008 54.0244 5.54878 55.1219C5.423 55.4925 5.19943 55.7974 4.87805 56.0365C3.916 56.2115 2.94039 56.2725 1.95122 56.2195C1.93092 57.3584 1.95125 58.4967 2.0122 59.6341C2.18239 60.2107 2.56857 60.5156 3.17073 60.5487C17.7235 60.6301 32.2764 60.6301 46.8292 60.5487C47.4314 60.5156 47.8175 60.2107 47.9878 59.6341C48.0488 58.4967 48.069 57.3584 48.0488 56.2195C47.0596 56.2725 46.084 56.2115 45.1219 56.0365C44.8006 55.7974 44.5769 55.4925 44.4512 55.1219C44.3699 54.0244 44.3699 52.9268 44.4512 51.8292C44.6363 51.115 45.1039 50.7287 45.8536 50.6707C46.5842 50.6098 47.3159 50.5895 48.0488 50.6097C48.0488 38.943 48.0488 27.2764 48.0488 15.6097C47.0596 15.6628 46.084 15.6018 45.1219 15.4268C44.7942 15.1982 44.5706 14.8933 44.4512 14.5122C44.3699 13.4146 44.3699 12.3171 44.4512 11.2195C44.6363 10.5052 45.1039 10.1191 45.8536 10.061C46.5842 10.0001 47.3159 9.97972 48.0488 9.99999C48.0691 7.60128 48.0488 5.2029 47.9878 2.80488C47.8175 2.22833 47.4314 1.92345 46.8292 1.89024C45.5697 1.82929 44.3096 1.80896 43.0488 1.82927C43.0691 3.13072 43.0488 4.43152 42.9878 5.7317C42.7264 6.43991 42.2184 6.82608 41.4634 6.89024C38.5772 6.97154 35.6911 6.97154 32.8049 6.89024C32.0499 6.82608 31.5418 6.43991 31.2805 5.7317C31.2195 4.43152 31.1991 3.13072 31.2195 1.82927C30.7723 1.82927 30.3252 1.82927 29.878 1.82927C29.8984 3.17134 29.878 4.5128 29.8171 5.85365C29.6823 6.27281 29.418 6.57769 29.0244 6.76829C25.5332 6.90807 22.0372 6.96904 18.5366 6.95121C15.0756 6.96954 11.6204 6.90857 8.17073 6.76829C7.82524 6.58536 7.56097 6.32113 7.37805 5.97561C7.31707 4.59409 7.29671 3.21197 7.31707 1.82927C5.93437 1.80896 4.55224 1.82928 3.17073 1.89024C2.56857 1.92345 2.18239 2.22833 2.0122 2.80488C1.95122 5.2029 1.9309 7.60128 1.95122 9.99999C2.68405 9.97972 3.41576 10.0001 4.14634 10.061C4.89612 10.1191 5.36361 10.5052 5.54878 11.2195C5.63008 12.3171 5.63008 13.4146 5.54878 14.5122C5.41804 15.0089 5.11316 15.3545 4.63415 15.5488C3.74076 15.6097 2.84645 15.63 1.95122 15.6097C1.97154 17.4395 1.95121 19.2688 1.89025 21.0975C1.51572 21.6828 1.00759 21.825 0.365856 21.5244C0.219344 21.4143 0.11771 21.2721 0.0609786 21.0975C-0.0203262 14.878 -0.0203262 8.65853 0.0609786 2.43902C0.376442 1.20937 1.12847 0.396363 2.31707 0ZM9.26829 1.82927C9.7967 1.82927 10.3252 1.82927 10.8537 1.82927C10.8335 2.27825 10.8538 2.72541 10.9146 3.17073C11.3919 3.85881 11.961 3.94011 12.6219 3.41463C12.7887 2.90249 12.8496 2.37404 12.8049 1.82927C13.2927 1.82927 13.7805 1.82927 14.2683 1.82927C14.248 2.31875 14.2684 2.80656 14.3293 3.29268C14.838 3.88639 15.3868 3.92705 15.9756 3.41463C16.1811 2.90723 16.2624 2.37878 16.2195 1.82927C16.6667 1.82927 17.1138 1.82927 17.561 1.82927C17.5063 2.38302 17.5877 2.91147 17.8049 3.41463C18.3937 3.92705 18.9424 3.88639 19.4512 3.29268C19.5121 2.80656 19.5324 2.31875 19.5122 1.82927C20 1.82927 20.4878 1.82927 20.9756 1.82927C20.9555 2.27825 20.9757 2.72541 21.0366 3.17073C21.5139 3.85881 22.0829 3.94011 22.7439 3.41463C22.9106 2.90249 22.9716 2.37404 22.9268 1.82927C23.4146 1.82927 23.9024 1.82927 24.3902 1.82927C24.37 2.31875 24.3904 2.80656 24.4512 3.29268C25.1661 3.98703 25.7758 3.90573 26.2805 3.04878C26.3412 2.64429 26.3616 2.23779 26.3414 1.82927C26.8699 1.82927 27.3984 1.82927 27.9268 1.82927C27.9268 2.88618 27.9268 3.94308 27.9268 5C21.7073 5 15.4878 5 9.26829 5C9.26829 3.94308 9.26829 2.88618 9.26829 1.82927ZM33.1707 1.82927C33.6179 1.82927 34.065 1.82927 34.5122 1.82927C34.4919 2.31875 34.5123 2.80656 34.5732 3.29268C35.1423 3.94308 35.7113 3.94308 36.2805 3.29268C36.4349 2.81767 36.4958 2.32986 36.4634 1.82927C36.9106 1.82927 37.3577 1.82927 37.8049 1.82927C37.7858 2.32703 37.8468 2.81484 37.9878 3.29268C38.5569 3.94308 39.126 3.94308 39.6951 3.29268C39.756 2.80656 39.7763 2.31875 39.7561 1.82927C40.2033 1.82927 40.6503 1.82927 41.0975 1.82927C41.0975 2.88618 41.0975 3.94308 41.0975 5C38.4552 5 35.813 5 33.1707 5C33.1707 3.94308 33.1707 2.88618 33.1707 1.82927ZM1.95122 11.9512C2.52033 11.9512 3.08943 11.9512 3.65854 11.9512C3.65854 12.5204 3.65854 13.0894 3.65854 13.6585C3.08943 13.6585 2.52033 13.6585 1.95122 13.6585C1.95122 13.0894 1.95122 12.5204 1.95122 11.9512ZM46.3414 11.9512C46.9106 11.9512 47.4796 11.9512 48.0488 11.9512C48.0488 12.5204 48.0488 13.0894 48.0488 13.6585C47.4796 13.6585 46.9106 13.6585 46.3414 13.6585C46.3414 13.0894 46.3414 12.5204 46.3414 11.9512ZM18.4146 40.6097C20.5084 40.8944 21.3418 42.0731 20.9146 44.1463C20.0238 45.6546 18.7839 46.0407 17.1951 45.3048C16.0179 44.2859 15.7943 43.0868 16.5244 41.7073C17.0294 41.0955 17.6595 40.7296 18.4146 40.6097ZM1.95122 52.5609C2.52033 52.5609 3.08943 52.5609 3.65854 52.5609C3.65854 53.1301 3.65854 53.6991 3.65854 54.2683C3.08943 54.2683 2.52033 54.2683 1.95122 54.2683C1.95122 53.6991 1.95122 53.1301 1.95122 52.5609ZM46.3414 52.5609C46.9106 52.5609 47.4796 52.5609 48.0488 52.5609C48.0488 53.1301 48.0488 53.6991 48.0488 54.2683C47.4796 54.2683 46.9106 54.2683 46.3414 54.2683C46.3414 53.6991 46.3414 53.1301 46.3414 52.5609Z" fill="#4BAE27"/>
<path opacity="0.935" fill-rule="evenodd" clip-rule="evenodd" d="M10.0002 12.0732C20.0003 12.0528 30.0003 12.0732 40.0002 12.1342C41.0247 12.3863 41.6954 13.0163 42.0124 14.0244C42.0937 26.9512 42.0937 39.878 42.0124 52.8049C41.6954 53.8129 41.0247 54.4429 40.0002 54.6951C37.9676 54.7764 35.9352 54.7764 33.9026 54.6951C33.3265 54.3981 33.1436 53.9306 33.3538 53.2927C33.5019 53.1038 33.6848 52.9616 33.9026 52.8658C35.8132 52.8252 37.7237 52.7845 39.6343 52.7439C39.8579 52.6829 40.0002 52.5406 40.0612 52.3171C40.1425 39.7155 40.1425 27.1138 40.0612 14.5122C40.0002 14.2887 39.8579 14.1463 39.6343 14.0854C29.8782 14.004 20.1221 14.004 10.3661 14.0854C10.2543 14.131 10.1526 14.192 10.0612 14.2683C9.91935 20.6404 9.85837 27.0226 9.87825 33.4146C9.85837 39.8067 9.91935 46.1889 10.0612 52.561C10.1526 52.6373 10.2543 52.6983 10.3661 52.7439C16.992 52.7845 23.6181 52.8252 30.2441 52.8658C30.8581 53.2333 31.0004 53.7414 30.6709 54.3902C30.5608 54.5367 30.4186 54.6384 30.2441 54.6951C23.4962 54.7764 16.7481 54.7764 10.0002 54.6951C8.97569 54.4429 8.30496 53.8129 7.98801 52.8049C7.90667 39.878 7.90667 26.9512 7.98801 14.0244C8.32679 13.0146 8.99752 12.3643 10.0002 12.0732ZM16.0978 20.6098C21.9108 20.6098 27.7237 20.6098 33.5368 20.6098C33.5368 24.3496 33.5368 28.0894 33.5368 31.8293C27.7237 31.8293 21.9108 31.8293 16.0978 31.8293C16.0978 28.0894 16.0978 24.3496 16.0978 20.6098ZM18.4148 40.6097C17.6597 40.7296 17.0296 41.0955 16.5246 41.7073C15.7945 43.0868 16.0181 44.286 17.1953 45.3049C18.7841 46.0407 20.024 45.6546 20.9148 44.1463C21.342 42.0732 20.5086 40.8944 18.4148 40.6097Z" fill="#4BAE27"/>
<path opacity="0.937" fill-rule="evenodd" clip-rule="evenodd" d="M15.366 18.6585C21.667 18.6382 27.9677 18.6585 34.2685 18.7195C34.8459 18.8497 35.2321 19.1952 35.427 19.7561C35.5474 24.1567 35.5066 28.5469 35.305 32.9268C35.0195 33.3335 34.6335 33.5978 34.1465 33.7195C27.9676 33.8008 21.7888 33.8008 15.6099 33.7195C14.8718 33.5911 14.4042 33.1642 14.2075 32.439C14.1261 28.252 14.1261 24.065 14.2075 19.878C14.4541 19.3268 14.8403 18.9203 15.366 18.6585ZM16.0977 20.6097C16.0977 24.3496 16.0977 28.0894 16.0977 31.8292C21.9108 31.8292 27.7237 31.8292 33.5367 31.8292C33.5367 28.0894 33.5367 24.3496 33.5367 20.6097C27.7237 20.6097 21.9108 20.6097 16.0977 20.6097Z" fill="#4BAE27"/>
<path opacity="0.913" fill-rule="evenodd" clip-rule="evenodd" d="M19.0246 22.1951C20.3261 22.1748 21.6269 22.1951 22.927 22.2561C23.8918 22.6897 24.0137 23.2994 23.2929 24.0854C21.7889 24.1667 20.2847 24.1667 18.7807 24.0854C18.4312 23.9155 18.2686 23.631 18.2929 23.2317C18.2869 22.6917 18.5308 22.3461 19.0246 22.1951Z" fill="#4BAE27"/>
<path opacity="0.925" fill-rule="evenodd" clip-rule="evenodd" d="M18.7805 25.2438C22.2767 25.2235 25.7726 25.2438 29.2683 25.3048C29.7699 25.7327 29.8715 26.2409 29.5732 26.8292C29.4304 26.9991 29.2475 27.1008 29.0244 27.1341C25.6504 27.2154 22.2765 27.2154 18.9025 27.1341C18.2794 26.7236 18.1371 26.1748 18.4756 25.4877C18.597 25.4187 18.6986 25.3374 18.7805 25.2438Z" fill="#4BAE27"/>
<path opacity="0.926" fill-rule="evenodd" clip-rule="evenodd" d="M19.0246 28.1707C22.3581 28.1504 25.6915 28.1707 29.0246 28.2317C29.75 28.5284 29.9329 29.0366 29.5734 29.7561C29.4718 29.8577 29.3701 29.9594 29.2685 30.061C25.7725 30.1423 22.2767 30.1423 18.7807 30.061C18.4312 29.8911 18.2686 29.6066 18.2929 29.2073C18.2869 28.6673 18.5308 28.3217 19.0246 28.1707Z" fill="#4BAE27"/>
<path opacity="0.925" fill-rule="evenodd" clip-rule="evenodd" d="M18.2926 38.6584C21.186 38.7877 22.7714 40.2919 23.0487 43.1706C22.8062 45.9334 21.3022 47.4375 18.5365 47.6828C15.0915 47.1353 13.689 45.1434 14.3292 41.7072C15.0416 39.8797 16.3627 38.8633 18.2926 38.6584ZM18.4145 40.6097C17.6594 40.7295 17.0293 41.0954 16.5243 41.7072C15.7942 43.0867 16.0178 44.2859 17.195 45.3048C18.7838 46.0406 20.0237 45.6545 20.9145 44.1462C21.3417 42.0731 20.5083 40.8943 18.4145 40.6097Z" fill="#4BAE27"/>
<path opacity="0.923" fill-rule="evenodd" clip-rule="evenodd" d="M25.1219 40.4879C27.927 40.4675 30.7319 40.4879 33.5365 40.5488C34.1889 40.9857 34.2906 41.5344 33.8414 42.1952C33.7113 42.2794 33.5689 42.3404 33.4145 42.3781C30.6503 42.4594 27.8861 42.4594 25.1219 42.3781C24.5458 42.0812 24.3628 41.6136 24.5731 40.9757C24.7435 40.7842 24.9264 40.6215 25.1219 40.4879Z" fill="#4BAE27"/>
<path opacity="0.925" fill-rule="evenodd" clip-rule="evenodd" d="M25.3658 43.4146C28.0084 43.3943 30.6507 43.4146 33.2927 43.4756C34.2652 43.9111 34.3872 44.5208 33.6585 45.3049C30.7723 45.3862 27.8862 45.3862 25 45.3049C24.5473 44.9984 24.4051 44.5716 24.5731 44.0244C24.7283 43.6595 24.9924 43.4562 25.3658 43.4146Z" fill="#4BAE27"/>
</svg>
