<svg width="50" height="29" viewBox="0 0 50 29" fill="none" xmlns="http://www.w3.org/2000/svg">
<path opacity="0.892" fill-rule="evenodd" clip-rule="evenodd" d="M50 5.07815C50 9.01692 50 12.9558 50 16.8946C49.7195 17.7298 49.2313 18.4297 48.5352 18.9942C47.4609 19.8079 46.3867 20.6218 45.3125 21.4356C44.9491 21.6823 44.5585 21.8777 44.1406 22.0215C39.8475 22.1491 35.5506 22.2143 31.25 22.2168C31.6649 22.6608 31.7463 23.1654 31.4941 23.7305C31.1336 24.0949 30.6941 24.2577 30.1758 24.2188C29.1888 24.2725 28.668 23.8168 28.6133 22.8516C28.3854 22.8516 28.1575 22.8516 27.9297 22.8516C27.7487 23.7649 27.1953 24.302 26.2695 24.4629C23.2747 24.5281 20.28 24.5281 17.2852 24.4629C16.1008 24.1633 15.5475 23.3983 15.625 22.168C15.4297 22.168 15.2344 22.168 15.0391 22.168C15.1004 22.7795 15.019 23.3655 14.7949 23.9258C14.0462 24.7071 13.2976 24.7071 12.5488 23.9258C12.3388 23.3605 12.2574 22.7745 12.3047 22.168C12.1745 22.168 12.0442 22.168 11.9141 22.168C11.9472 23.3552 11.3938 23.7947 10.2539 23.4864C9.7302 23.2022 9.53488 22.7627 9.66797 22.168C9.27734 22.168 8.88672 22.168 8.49609 22.168C8.29489 23.4598 7.54619 24.2247 6.25 24.4629C5.60727 24.542 4.9725 24.5257 4.3457 24.4141C4.31315 25.6185 4.2806 26.823 4.24805 28.0274C3.92355 28.6531 3.41899 28.8648 2.73438 28.6621C2.37642 28.4992 2.16482 28.2226 2.09961 27.8321C2.05088 27.4101 2.0346 26.9869 2.05078 26.5625C1.55607 26.5781 1.06779 26.5293 0.585938 26.416C0.241079 26.1882 0.045767 25.879 0 25.4883C0 25.3255 0 25.1628 0 25C0.0704437 24.5853 0.298309 24.276 0.683594 24.0723C1.13816 24.0236 1.5939 24.0072 2.05078 24.0235C2.05078 23.8933 2.05078 23.763 2.05078 23.6328C0.876385 23.5966 0.192791 23.0107 0 21.875C0 20.2474 0 18.6198 0 16.9922C0.19249 15.857 0.876084 15.271 2.05078 15.2344C2.05078 15.1042 2.05078 14.9739 2.05078 14.8438C1.56142 14.86 1.07313 14.8437 0.585938 14.7949C0.237613 14.5648 0.0423009 14.2556 0 13.8672C0 13.7044 0 13.5417 0 13.3789C0.0704437 12.9642 0.298309 12.6549 0.683594 12.4512C1.13816 12.4025 1.5939 12.3862 2.05078 12.4024C2.05078 9.96096 2.05078 7.51956 2.05078 5.07815C1.5939 5.09436 1.13816 5.07805 0.683594 5.02932C0.404529 4.86389 0.176664 4.65227 0 4.39456C0 4.06907 0 3.74348 0 3.41799C0.206198 3.03733 0.531719 2.82571 0.976562 2.78323C1.88802 2.71809 2.79948 2.71809 3.71094 2.78323C3.88954 2.80989 4.03603 2.89133 4.15039 3.02737C4.26301 3.34094 4.32811 3.66643 4.3457 4.00393C4.55352 3.69827 4.79766 3.42161 5.07812 3.17385C6.15234 2.36008 7.22656 1.54622 8.30078 0.732446C8.75181 0.42561 9.24009 0.197681 9.76562 0.0488525C21.2239 -0.0162842 32.6823 -0.0162842 44.1406 0.0488525C44.52 0.121021 44.8781 0.251294 45.2148 0.439478C46.3867 1.31838 47.5586 2.19729 48.7305 3.0762C49.342 3.63362 49.7651 4.301 50 5.07815ZM9.86328 0.878931C21.2565 0.862622 32.6498 0.878931 44.043 0.927759C44.3475 1.03118 44.6404 1.16135 44.9219 1.31838C45.9961 2.13215 47.0703 2.94602 48.1445 3.75979C48.572 4.15461 48.8812 4.62659 49.0723 5.17581C49.1825 7.0929 49.2313 9.0135 49.2188 10.9375C49.2313 12.8615 49.1825 14.7822 49.0723 16.6992C48.891 17.3691 48.5167 17.9062 47.9492 18.3106C46.7773 19.1895 45.6055 20.0684 44.4336 20.9473C44.154 21.0839 43.861 21.1816 43.5547 21.2403C39.1602 21.2728 34.7656 21.3054 30.3711 21.3379C29.8315 21.623 29.6525 22.0624 29.834 22.6563C30.0875 22.8047 30.3642 22.8861 30.6641 22.9004C30.7942 23.0306 30.7942 23.1609 30.6641 23.291C30.5013 23.3073 30.3386 23.3236 30.1758 23.3399C29.9306 23.3606 29.7189 23.2954 29.541 23.1446C29.5287 22.6814 29.3496 22.3071 29.0039 22.0215C28.4831 21.9564 27.9622 21.9564 27.4414 22.0215C27.3112 22.0866 27.2136 22.1843 27.1484 22.3145C23.6004 22.3633 20.0522 22.3796 16.5039 22.3633C16.5538 21.5345 16.1632 21.1765 15.332 21.2891C14.5377 21.2044 14.1471 21.5625 14.1602 22.3633C13.8347 22.3633 13.5091 22.3633 13.1836 22.3633C13.2697 21.9327 13.1395 21.5909 12.793 21.3379C11.5785 20.967 10.96 21.4065 10.9375 22.6563C10.712 22.7962 10.5655 22.7311 10.498 22.461C10.5701 21.9515 10.3911 21.5772 9.96094 21.3379C8.78354 21.3296 7.61166 21.2646 6.44531 21.1426C5.2244 20.6207 4.60592 19.693 4.58984 18.3594C6.38923 18.3482 7.13793 17.4366 6.83594 15.625C6.81966 15.1693 6.80339 14.7136 6.78711 14.2578C6.45547 13.1719 5.72305 12.7161 4.58984 12.8906C4.54454 10.314 4.59337 7.74241 4.73633 5.17581C4.91345 4.64221 5.2227 4.20276 5.66406 3.85745C6.73828 3.04368 7.8125 2.22981 8.88672 1.41604C9.20573 1.20803 9.53125 1.02903 9.86328 0.878931ZM35.7422 3.12502C36.1768 3.11731 36.5999 3.18245 37.0117 3.32034C37.9674 4.95686 38.1465 6.68206 37.5488 8.49612C37.4614 7.78928 37.2661 7.10569 36.9629 6.44534C36.0975 5.49836 35.365 4.45667 34.7656 3.32034C35.1052 3.2552 35.4308 3.19006 35.7422 3.12502ZM16.1133 3.22268C16.5479 3.21497 16.971 3.2801 17.3828 3.41799C18.3385 5.05452 18.5176 6.77971 17.9199 8.59377C17.8115 7.89172 17.6162 7.20813 17.334 6.54299C16.4686 5.59602 15.7361 4.55432 15.1367 3.41799C15.4763 3.35286 15.8019 3.28772 16.1133 3.22268ZM33.7891 3.41799C34.374 4.63967 35.139 5.74641 36.084 6.73831C36.4134 7.18655 36.5272 7.67483 36.4258 8.20315C35.6913 6.31399 34.4543 4.86545 32.7148 3.85745C33.0866 3.71799 33.4447 3.57151 33.7891 3.41799ZM14.1602 3.51565C14.7451 4.73733 15.5101 5.84407 16.4551 6.83596C16.7845 7.2842 16.8983 7.77249 16.7969 8.30081C16.0624 6.41165 14.8254 4.96311 13.0859 3.9551C13.4577 3.81565 13.8158 3.66917 14.1602 3.51565ZM38.1836 3.61331C38.6752 3.47034 38.9355 3.66565 38.9648 4.19924C38.8533 5.34114 38.8859 6.48049 39.0625 7.61721C39.0563 8.19075 38.861 8.67903 38.4766 9.08206C38.444 9.01692 38.4114 8.95188 38.3789 8.88674C38.9561 7.08811 38.891 5.3303 38.1836 3.61331ZM1.07422 3.61331C1.72607 3.5971 2.37712 3.61331 3.02734 3.66213C3.16707 3.70754 3.28101 3.78899 3.36914 3.90627C3.43425 11.849 3.43425 19.7917 3.36914 27.7344C3.23894 27.8646 3.10872 27.8646 2.97852 27.7344C2.94597 20.0521 2.91341 12.3698 2.88086 4.68752C2.79948 4.4759 2.653 4.32942 2.44141 4.24807C1.95312 4.21555 1.46484 4.18293 0.976562 4.15042C0.768748 3.95432 0.8013 3.77532 1.07422 3.61331ZM8.30078 3.61331C8.63639 3.63967 8.8317 3.81868 8.88672 4.15042C8.75509 4.54114 8.49467 4.67131 8.10547 4.54104C7.81472 4.15559 7.87982 3.84631 8.30078 3.61331ZM18.5547 3.61331C19.0354 3.57473 19.2959 3.78635 19.3359 4.24807C19.2904 4.63762 19.2579 5.02825 19.2383 5.41995C19.3424 6.34661 19.3912 7.27434 19.3848 8.20315C19.2799 8.5761 19.1009 8.90159 18.8477 9.17971C18.8151 9.11458 18.7825 9.04954 18.75 8.9844C19.3274 7.16418 19.2623 5.37375 18.5547 3.61331ZM44.4336 3.61331C44.9267 3.68108 45.0895 3.94153 44.9219 4.39456C44.5234 4.69368 44.2305 4.61233 44.043 4.15042C44.0925 3.90188 44.2228 3.72278 44.4336 3.61331ZM39.8438 4.10159C40.4281 4.42659 40.9814 4.8009 41.5039 5.22463C41.593 7.21194 40.8442 8.82327 39.2578 10.0586C39.181 9.98616 39.1159 9.90481 39.0625 9.81448C39.4788 9.38889 39.7556 8.8843 39.8926 8.30081C39.9152 7.32219 39.8664 6.34563 39.7461 5.37112C39.774 4.9469 39.8066 4.52376 39.8438 4.10159ZM20.2148 4.19924C20.7992 4.52424 21.3525 4.89856 21.875 5.32229C21.9982 6.45315 21.7541 7.51116 21.1426 8.49612C20.6942 9.14016 20.1734 9.7261 19.5801 10.2539C19.5312 10.1563 19.4824 10.0586 19.4336 9.96096C19.8375 9.51145 20.1142 8.99055 20.2637 8.39846C20.2799 7.38772 20.2311 6.37864 20.1172 5.37112C20.1336 4.97805 20.1661 4.58743 20.2148 4.19924ZM31.6406 4.39456C33.4155 5.17659 34.6851 6.46243 35.4492 8.25198C35.1452 7.94797 34.8197 7.62249 34.4727 7.27542C34.1954 7.08792 33.9024 6.92512 33.5938 6.78713C32.8501 6.62971 32.1014 6.49954 31.3477 6.39651C30.846 6.27268 30.3577 6.10999 29.8828 5.90823C30.4211 5.33264 31.007 4.82805 31.6406 4.39456ZM12.0117 4.49221C13.7866 5.27424 15.0562 6.56008 15.8203 8.34963C15.5163 8.04563 15.1908 7.72014 14.8438 7.37307C14.6318 7.21819 14.4039 7.08792 14.1602 6.98245C13.3621 6.74749 12.5483 6.58469 11.7188 6.49417C11.2171 6.37034 10.7288 6.20764 10.2539 6.00588C10.7922 5.4303 11.3781 4.92571 12.0117 4.49221ZM42.3828 6.25002C42.7264 6.57815 43.0193 6.95247 43.2617 7.37307C42.9199 7.71487 42.5781 8.05667 42.2363 8.39846C41.7023 9.18958 41.1327 9.95452 40.5273 10.6934C40.2244 10.8922 39.8989 10.9899 39.5508 10.9864C41.1849 9.81731 42.1289 8.2386 42.3828 6.25002ZM22.7539 6.34768C23.0975 6.67581 23.3904 7.05012 23.6328 7.47073C23.291 7.81252 22.9492 8.15432 22.6074 8.49612C22.0734 9.28723 21.5038 10.0522 20.8984 10.791C20.5955 10.9899 20.27 11.0875 19.9219 11.084C21.556 9.91497 22.5 8.33626 22.7539 6.34768ZM29.2969 6.64065C29.6733 6.81506 30.064 6.96155 30.4688 7.0801C31.5174 7.28098 32.5591 7.50881 33.5938 7.7637C33.9519 7.99153 34.2448 8.2845 34.4727 8.6426C33.9625 8.45413 33.4417 8.25881 32.9102 8.05667C31.4555 7.68127 29.9906 7.61624 28.5156 7.86135C28.7649 7.44338 29.0253 7.03655 29.2969 6.64065ZM9.66797 6.73831C10.0444 6.91272 10.4351 7.0592 10.8398 7.17776C11.8898 7.37395 12.9315 7.60188 13.9648 7.86135C14.3229 8.08918 14.6159 8.38215 14.8438 8.74026C14.3336 8.55178 13.8128 8.35647 13.2812 8.15432C11.8258 7.77893 10.3609 7.71379 8.88672 7.95901C9.13599 7.54104 9.39641 7.1342 9.66797 6.73831ZM43.5547 8.30081C43.6521 8.29788 43.7172 8.3467 43.75 8.44729C43.9524 8.98958 44.1152 9.54299 44.2383 10.1074C43.4235 11.2325 42.3167 11.9161 40.918 12.1582C40.4332 12.2473 39.9449 12.2961 39.4531 12.3047C39.4531 12.1745 39.4531 12.0443 39.4531 11.9141C40.062 11.9003 40.6154 11.7213 41.1133 11.377C41.8927 10.322 42.7064 9.29661 43.5547 8.30081ZM23.9258 8.39846C24.0231 8.39553 24.0883 8.44436 24.1211 8.54495C24.3142 9.08948 24.477 9.6428 24.6094 10.2051C23.7951 11.33 22.6883 12.0136 21.2891 12.2559C20.8043 12.3449 20.316 12.3938 19.8242 12.4024C19.8242 12.2722 19.8242 12.1419 19.8242 12.0117C20.4331 11.998 20.9865 11.819 21.4844 11.4746C22.2638 10.4197 23.0775 9.39426 23.9258 8.39846ZM29.4922 8.59377C30.9755 8.44485 32.3752 8.7052 33.6914 9.37502C33.0102 9.32766 32.3266 9.37649 31.6406 9.52151C30.8312 9.89358 30.05 10.3168 29.2969 10.791C28.7981 11.0387 28.2773 11.2177 27.7344 11.3281C27.7424 10.564 27.8563 9.81526 28.0762 9.08206C28.5397 8.86526 29.0117 8.70256 29.4922 8.59377ZM9.86328 8.69143C11.3466 8.54251 12.7463 8.80286 14.0625 9.47268C13.3813 9.42532 12.6977 9.47415 12.0117 9.61917C11.2023 9.99124 10.4211 10.4145 9.66797 10.8887C9.16924 11.1364 8.64841 11.3154 8.10547 11.4258C8.11355 10.6612 8.22749 9.91243 8.44727 9.17971C8.91081 8.96292 9.38281 8.80022 9.86328 8.69143ZM35.7422 9.08206C37.4258 9.03997 38.4023 9.85374 38.6719 11.5235C38.2757 13.4359 37.1364 14.1683 35.2539 13.7207C33.6803 12.7114 33.4036 11.4255 34.4238 9.86331C34.8034 9.48694 35.2429 9.22649 35.7422 9.08206ZM16.1133 9.17971C17.7772 9.13459 18.7538 9.93215 19.043 11.5723C18.8609 13.0564 18.0309 13.8864 16.5527 14.0625C14.59 13.6528 13.8738 12.4809 14.4043 10.5469C14.7854 9.84504 15.3551 9.38928 16.1133 9.17971ZM32.1289 10.2539C32.4607 10.2227 32.7863 10.2552 33.1055 10.3516C31.6896 10.7828 30.3876 11.4502 29.1992 12.3535C28.7517 12.7356 28.3772 13.175 28.0762 13.6719C27.9056 13.2863 27.7916 12.8793 27.7344 12.4512C27.7485 12.3758 27.7811 12.3107 27.832 12.2559C28.3337 12.1321 28.822 11.9694 29.2969 11.7676C30.25 11.2588 31.194 10.7542 32.1289 10.2539ZM12.5 10.3516C12.8318 10.3203 13.1574 10.3529 13.4766 10.4492C12.0607 10.8805 10.7587 11.5479 9.57031 12.4512C9.12272 12.8332 8.74838 13.2727 8.44727 13.7696C8.27663 13.3839 8.16271 12.977 8.10547 12.5489C8.11961 12.4735 8.15216 12.4083 8.20312 12.3535C8.70475 12.2297 9.19303 12.067 9.66797 11.8653C10.6241 11.355 11.5682 10.8504 12.5 10.3516ZM32.7148 11.4258C32.8004 11.413 32.8655 11.4455 32.9102 11.5235C32.3342 11.8548 31.8296 12.278 31.3965 12.793C31.0134 13.6493 30.6878 14.5282 30.4199 15.4297C30.2089 15.9172 29.9484 16.373 29.6387 16.7969C29.1584 16.1951 28.7516 15.5441 28.418 14.8438C29.3895 13.1235 30.8218 11.9841 32.7148 11.4258ZM13.0859 11.5235C13.1715 11.5107 13.2366 11.5432 13.2812 11.6211C12.7028 11.9553 12.1982 12.3785 11.7676 12.8906C11.3845 13.747 11.0589 14.6259 10.791 15.5274C10.58 16.0149 10.3195 16.4706 10.0098 16.8946C9.52954 16.2928 9.12264 15.6417 8.78906 14.9414C9.23555 14.0654 9.854 13.3329 10.6445 12.7442C11.4129 12.2298 12.2267 11.8229 13.0859 11.5235ZM44.2383 11.5235C44.35 11.8996 44.35 12.2903 44.2383 12.6953C43.8108 12.7029 43.3877 12.7517 42.9688 12.8418C42.0659 13.0669 41.1707 13.3111 40.2832 13.5742C39.9157 13.5386 39.5739 13.4246 39.2578 13.2324C40.7491 13.2208 42.1489 12.8627 43.457 12.1582C43.7358 11.9599 43.9963 11.7484 44.2383 11.5235ZM24.6094 11.6211C24.7108 11.9963 24.7108 12.3869 24.6094 12.793C24.1819 12.8005 23.7588 12.8493 23.3398 12.9395C22.4381 13.1642 21.5429 13.4083 20.6543 13.6719C20.2868 13.6363 19.945 13.5223 19.6289 13.3301C21.5173 13.3681 23.1774 12.7985 24.6094 11.6211ZM33.0078 12.5C33.1861 12.6909 33.235 12.9188 33.1543 13.1836C32.2556 15.0302 31.9788 16.9508 32.3242 18.9453C31.5734 18.5686 30.8898 18.0966 30.2734 17.5293C31.0673 16.3151 31.637 14.9967 31.9824 13.5742C32.2783 13.1646 32.6201 12.8066 33.0078 12.5ZM13.3789 12.5977C13.4927 12.6949 13.5578 12.8251 13.5742 12.9883C12.7379 14.686 12.4286 16.4763 12.6465 18.3594C12.6695 18.5805 12.7184 18.7921 12.793 18.9942C12.7604 19.0105 12.7278 19.0267 12.6953 19.043C11.9445 18.6662 11.2609 18.1943 10.6445 17.627C11.439 16.4117 12.0086 15.0934 12.3535 13.6719C12.6494 13.2622 12.9912 12.9042 13.3789 12.5977ZM0.976562 13.2813C1.33464 13.2813 1.69271 13.2813 2.05078 13.2813C2.05078 13.5417 2.05078 13.8021 2.05078 14.0625C1.72364 14.0786 1.39813 14.0623 1.07422 14.0137C0.85795 13.7948 0.825398 13.5506 0.976562 13.2813ZM43.6523 13.5742C43.7825 13.5742 43.9128 13.5742 44.043 13.5742C43.8986 14.2215 43.6707 14.84 43.3594 15.4297C41.5208 15.7994 39.877 15.3763 38.4277 14.1602C38.369 14.0171 38.4179 13.9195 38.5742 13.8672C39.085 14.2274 39.6546 14.4227 40.2832 14.4531C41.4191 14.1659 42.5422 13.873 43.6523 13.5742ZM24.0234 13.6719C24.1536 13.6719 24.2839 13.6719 24.4141 13.6719C24.286 14.2864 24.0745 14.8723 23.7793 15.4297C23.4128 15.6628 23.0059 15.7605 22.5586 15.7227C21.2226 15.6408 20.0181 15.2014 18.9453 14.4043C18.6935 14.2469 18.6935 14.1004 18.9453 13.9649C19.4561 14.325 20.0257 14.5203 20.6543 14.5508C21.7902 14.2636 22.9133 13.9706 24.0234 13.6719ZM4.88281 13.7696C5.27812 13.7638 5.58736 13.9266 5.81055 14.2578C5.91889 14.7028 5.96771 15.1584 5.95703 15.625C6.21993 16.6316 5.86187 17.2501 4.88281 17.4805C4.88281 16.2435 4.88281 15.0066 4.88281 13.7696ZM33.7891 13.7696C33.8846 13.7999 33.9497 13.8651 33.9844 13.9649C33.8265 14.7267 33.8753 15.4754 34.1309 16.211C34.554 16.9597 34.9772 17.7083 35.4004 18.4571C35.5761 18.8703 35.7226 19.2935 35.8398 19.7266C35.0088 19.8194 34.2112 19.6892 33.4473 19.336C32.912 17.4402 33.0259 15.5847 33.7891 13.7696ZM14.1602 13.8672C14.2557 13.8976 14.3208 13.9627 14.3555 14.0625C14.1976 14.8243 14.2464 15.5731 14.502 16.3086C14.9251 17.0573 15.3483 17.806 15.7715 18.5547C15.9472 18.968 16.0937 19.3911 16.2109 19.8242C15.3799 19.917 14.5823 19.7868 13.8184 19.4336C13.2831 17.5378 13.397 15.6823 14.1602 13.8672ZM34.7656 14.4531C34.8849 14.5047 34.9987 14.5698 35.1074 14.6485C35.5316 16.3931 36.3943 17.8742 37.6953 19.0918C37.8906 19.222 38.0859 19.3523 38.2812 19.4824C37.8011 19.6369 37.3128 19.7509 36.8164 19.8242C36.4234 18.4525 35.8212 17.1829 35.0098 16.0156C34.8066 15.5147 34.7253 14.9939 34.7656 14.4531ZM15.1367 14.5508C15.256 14.6024 15.3698 14.6675 15.4785 14.7461C15.9027 16.4907 16.7654 17.9719 18.0664 19.1895C18.2617 19.3197 18.457 19.4499 18.6523 19.5801C18.1722 19.7346 17.6839 19.8486 17.1875 19.9219C16.999 19.4053 16.8199 18.8844 16.6504 18.3594C16.1606 17.4448 15.6724 16.5334 15.1855 15.625C15.1368 15.2684 15.1206 14.9104 15.1367 14.5508ZM37.4023 14.5508C38.8868 15.8129 40.6121 16.4802 42.5781 16.5528C42.4013 16.8436 42.1734 17.0877 41.8945 17.2852C41.3727 16.9264 40.8193 16.6172 40.2344 16.3574C39.5033 16.1355 38.7871 15.875 38.0859 15.5762C37.7713 15.2875 37.5434 14.9457 37.4023 14.5508ZM17.7734 14.6485C19.2579 15.9106 20.9832 16.5779 22.9492 16.6504C22.7724 16.9412 22.5445 17.1854 22.2656 17.3828C21.0805 16.6347 19.8109 16.0651 18.457 15.6739C18.1424 15.3852 17.9145 15.0434 17.7734 14.6485ZM36.1328 14.7461C36.2771 14.7205 36.4073 14.7531 36.5234 14.8438C36.7723 15.5216 37.1954 16.0587 37.793 16.4551C38.6067 16.7481 39.4206 17.041 40.2344 17.334C40.5801 17.5226 40.9057 17.7342 41.2109 17.9688C40.643 18.4966 39.992 18.8384 39.2578 18.9942C37.5873 18.0477 36.5457 16.6317 36.1328 14.7461ZM16.5039 14.8438C16.6482 14.8182 16.7784 14.8507 16.8945 14.9414C17.1434 15.6193 17.5665 16.1564 18.1641 16.5528C19.3742 16.8906 20.5135 17.3788 21.582 18.0176C21.0313 18.5854 20.3803 18.9435 19.6289 19.0918C17.9584 18.1453 16.9168 16.7293 16.5039 14.8438ZM0.976562 16.6992C1.09006 18.5054 1.10633 20.3283 1.02539 22.168C0.846442 20.3485 0.830167 18.5255 0.976562 16.6992ZM44.5312 17.8711C44.9558 17.92 45.1348 18.1479 45.0684 18.5547C44.66 18.9776 44.3507 18.9124 44.1406 18.3594C44.2019 18.1361 44.332 17.9733 44.5312 17.8711ZM8.20312 18.8477C8.86755 18.9544 8.99775 19.2636 8.59375 19.7754C8.08919 19.8568 7.87761 19.6452 7.95898 19.1406C8.06104 19.0554 8.14241 18.9577 8.20312 18.8477ZM4.29688 20.6055C5.11907 21.6999 6.22584 22.2207 7.61719 22.168C7.496 22.7944 7.13792 23.2338 6.54297 23.4864C5.79739 23.6933 5.06497 23.6771 4.3457 23.4375C4.29689 22.4941 4.28062 21.55 4.29688 20.6055ZM13.2812 23.2422C13.576 23.2261 13.8689 23.2424 14.1602 23.291C13.8133 23.7637 13.5203 23.7475 13.2812 23.2422ZM16.7969 23.3399C17.0359 23.2448 17.2964 23.2123 17.5781 23.2422C17.6037 23.3865 17.5712 23.5167 17.4805 23.6328C17.2389 23.5528 17.011 23.4551 16.7969 23.3399ZM18.457 23.2422C18.6849 23.2422 18.9128 23.2422 19.1406 23.2422C19.1406 23.3724 19.1406 23.5027 19.1406 23.6328C18.9128 23.6328 18.6849 23.6328 18.457 23.6328C18.457 23.5027 18.457 23.3724 18.457 23.2422ZM20.0195 23.2422C20.2148 23.2422 20.4102 23.2422 20.6055 23.2422C20.6055 23.3724 20.6055 23.5027 20.6055 23.6328C20.4102 23.6328 20.2148 23.6328 20.0195 23.6328C20.0195 23.5027 20.0195 23.3724 20.0195 23.2422ZM21.4844 23.2422C21.7122 23.2422 21.9401 23.2422 22.168 23.2422C22.168 23.3724 22.168 23.5027 22.168 23.6328C21.9401 23.6328 21.7122 23.6328 21.4844 23.6328C21.4844 23.5027 21.4844 23.3724 21.4844 23.2422ZM23.0469 23.2422C23.2747 23.2422 23.5026 23.2422 23.7305 23.2422C23.7305 23.3724 23.7305 23.5027 23.7305 23.6328C23.5026 23.6328 23.2747 23.6328 23.0469 23.6328C23.0469 23.5027 23.0469 23.3724 23.0469 23.2422ZM24.6094 23.2422C24.8372 23.2422 25.0651 23.2422 25.293 23.2422C25.293 23.3724 25.293 23.5027 25.293 23.6328C25.0651 23.6328 24.8372 23.6328 24.6094 23.6328C24.6094 23.5027 24.6094 23.3724 24.6094 23.2422ZM26.1719 23.2422C26.9216 23.2445 26.9216 23.3421 26.1719 23.5352C26.1719 23.4375 26.1719 23.3399 26.1719 23.2422ZM0.976562 24.9024C1.33464 24.9024 1.69271 24.9024 2.05078 24.9024C2.05078 25.1628 2.05078 25.4232 2.05078 25.6836C1.72364 25.6997 1.39813 25.6834 1.07422 25.6348C0.85795 25.4158 0.825398 25.1717 0.976562 24.9024Z" fill="#55CB29"/>
<path opacity="0.88" fill-rule="evenodd" clip-rule="evenodd" d="M35.9374 2.24609C39.8129 2.39834 42.6287 4.18867 44.3847 7.61719C46.0191 11.9029 45.1564 15.5977 41.7968 18.7012C38.0092 21.3336 34.2006 21.3662 30.371 18.7988C27.1249 15.9563 26.1322 12.457 27.3925 8.30078C29.0128 4.5375 31.8612 2.51924 35.9374 2.24609ZM35.7421 3.125C35.4307 3.19004 35.1051 3.25518 34.7656 3.32031C35.365 4.45664 36.0974 5.49834 36.9628 6.44531C37.2661 7.10566 37.4614 7.78926 37.5488 8.49609C38.1464 6.68203 37.9673 4.95684 37.0117 3.32031C36.5999 3.18242 36.1767 3.11729 35.7421 3.125ZM33.789 3.41797C33.4447 3.57148 33.0866 3.71797 32.7148 3.85742C34.4542 4.86543 35.6913 6.31397 36.4257 8.20313C36.5272 7.67481 36.4133 7.18652 36.0839 6.73828C35.1389 5.74639 34.374 4.63965 33.789 3.41797ZM38.1835 3.61328C38.891 5.33027 38.956 7.08809 38.3789 8.88672C38.4114 8.95186 38.444 9.01689 38.4765 9.08203C38.861 8.679 39.0563 8.19072 39.0624 7.61719C38.8859 6.48047 38.8533 5.34111 38.9648 4.19922C38.9355 3.66563 38.6751 3.47031 38.1835 3.61328ZM39.8437 4.10156C39.8066 4.52373 39.774 4.94688 39.746 5.37109C39.8664 6.34561 39.9152 7.32217 39.8925 8.30078C39.7555 8.88428 39.4788 9.38887 39.0624 9.81445C39.1159 9.90479 39.1809 9.98613 39.2578 10.0586C40.8442 8.82324 41.5929 7.21191 41.5039 5.22461C40.9814 4.80088 40.4281 4.42656 39.8437 4.10156ZM31.6406 4.39453C31.007 4.82803 30.421 5.33262 29.8828 5.9082C30.3577 6.10996 30.8459 6.27266 31.3476 6.39648C32.1013 6.49951 32.85 6.62969 33.5937 6.78711C33.9024 6.9251 34.1954 7.08789 34.4726 7.27539C34.8197 7.62246 35.1452 7.94795 35.4492 8.25195C34.685 6.4624 33.4155 5.17656 31.6406 4.39453ZM42.3828 6.25C42.1289 8.23857 41.1848 9.81729 39.5507 10.9863C39.8989 10.9898 40.2244 10.8922 40.5273 10.6934C41.1327 9.95449 41.7023 9.18955 42.2363 8.39844C42.5781 8.05664 42.9199 7.71484 43.2617 7.37305C43.0193 6.95244 42.7263 6.57813 42.3828 6.25ZM29.2968 6.64063C29.0252 7.03652 28.7649 7.44336 28.5156 7.86133C29.9906 7.61621 31.4554 7.68125 32.9101 8.05664C33.4416 8.25879 33.9624 8.4541 34.4726 8.64258C34.2448 8.28447 33.9518 7.9915 33.5937 7.76367C32.559 7.50879 31.5173 7.28096 30.4687 7.08008C30.0639 6.96152 29.6733 6.81504 29.2968 6.64063ZM43.5546 8.30078C42.7064 9.29658 41.8926 10.322 41.1132 11.377C40.6154 11.7213 40.062 11.9003 39.4531 11.9141C39.4531 12.0442 39.4531 12.1745 39.4531 12.3047C39.9449 12.2961 40.4332 12.2473 40.9179 12.1582C42.3166 11.9161 43.4235 11.2325 44.2382 10.1074C44.1152 9.54297 43.9524 8.98955 43.7499 8.44727C43.7171 8.34668 43.652 8.29785 43.5546 8.30078ZM29.4921 8.59375C29.0117 8.70254 28.5397 8.86523 28.0761 9.08203C27.8563 9.81524 27.7423 10.564 27.7343 11.3281C28.2773 11.2177 28.7981 11.0387 29.2968 10.791C30.0499 10.3168 30.8312 9.89356 31.6406 9.52148C32.3265 9.37647 33.0101 9.32764 33.6914 9.375C32.3751 8.70518 30.9754 8.44482 29.4921 8.59375ZM35.7421 9.08203C35.2428 9.22647 34.8034 9.48691 34.4238 9.86328C33.4036 11.4255 33.6802 12.7113 35.2539 13.7207C37.1364 14.1683 38.2756 13.4358 38.6718 11.5234C38.4023 9.85371 37.4257 9.03994 35.7421 9.08203ZM32.1289 10.2539C31.194 10.7542 30.2499 11.2588 29.2968 11.7676C28.8219 11.9693 28.3336 12.132 27.832 12.2559C27.781 12.3106 27.7485 12.3758 27.7343 12.4512C27.7915 12.8793 27.9055 13.2862 28.0761 13.6719C28.3772 13.175 28.7516 12.7355 29.1992 12.3535C30.3875 11.4502 31.6896 10.7828 33.1054 10.3516C32.7863 10.2552 32.4607 10.2227 32.1289 10.2539ZM32.7148 11.4258C30.8217 11.9841 29.3894 13.1234 28.4179 14.8438C28.7515 15.544 29.1583 16.1951 29.6386 16.7969C29.9484 16.373 30.2088 15.9172 30.4199 15.4297C30.6877 14.5282 31.0133 13.6493 31.3964 12.793C31.8295 12.2779 32.3341 11.8548 32.9101 11.5234C32.8655 11.4455 32.8003 11.413 32.7148 11.4258ZM44.2382 11.5234C43.9962 11.7483 43.7358 11.9599 43.457 12.1582C42.1489 12.8627 40.7491 13.2208 39.2578 13.2324C39.5739 13.4246 39.9157 13.5386 40.2832 13.5742C41.1707 13.311 42.0659 13.0669 42.9687 12.8418C43.3876 12.7517 43.8108 12.7028 44.2382 12.6953C44.3499 12.2902 44.3499 11.8996 44.2382 11.5234ZM33.0078 12.5C32.6201 12.8065 32.2783 13.1646 31.9824 13.5742C31.637 14.9967 31.0672 16.315 30.2734 17.5293C30.8898 18.0966 31.5734 18.5686 32.3242 18.9453C31.9788 16.9508 32.2555 15.0302 33.1542 13.1836C33.2349 12.9188 33.1861 12.6909 33.0078 12.5ZM43.6523 13.5742C42.5421 13.873 41.4191 14.1659 40.2832 14.4531C39.6545 14.4227 39.0849 14.2273 38.5742 13.8672C38.4178 13.9194 38.369 14.0171 38.4277 14.1602C39.8769 15.3763 41.5207 15.7994 43.3593 15.4297C43.6707 14.8399 43.8986 14.2215 44.0429 13.5742C43.9127 13.5742 43.7825 13.5742 43.6523 13.5742ZM33.789 13.7695C33.0258 15.5847 32.912 17.4401 33.4472 19.3359C34.2112 19.6892 35.0087 19.8193 35.8398 19.7266C35.7225 19.2935 35.576 18.8703 35.4003 18.457C34.9772 17.7083 34.554 16.9597 34.1308 16.2109C33.8752 15.4754 33.8264 14.7267 33.9843 13.9648C33.9497 13.865 33.8845 13.7999 33.789 13.7695ZM34.7656 14.4531C34.7252 14.9938 34.8066 15.5146 35.0097 16.0156C35.8211 17.1829 36.4234 18.4524 36.8164 19.8242C37.3127 19.7509 37.801 19.6369 38.2812 19.4824C38.0859 19.3522 37.8906 19.222 37.6953 19.0918C36.3943 17.8742 35.5316 16.3931 35.1074 14.6484C34.9987 14.5698 34.8848 14.5047 34.7656 14.4531ZM37.4023 14.5508C37.5433 14.9457 37.7712 15.2875 38.0859 15.5762C38.7871 15.875 39.5033 16.1355 40.2343 16.3574C40.8193 16.6172 41.3726 16.9264 41.8945 17.2852C42.1734 17.0877 42.4012 16.8436 42.5781 16.5527C40.6121 16.4802 38.8868 15.8129 37.4023 14.5508ZM36.1328 14.7461C36.5457 16.6316 37.5873 18.0477 39.2578 18.9941C39.9919 18.8384 40.6429 18.4966 41.2109 17.9688C40.9056 17.7342 40.58 17.5226 40.2343 17.334C39.4206 17.041 38.6067 16.748 37.7929 16.4551C37.1954 16.0587 36.7722 15.5216 36.5234 14.8438C36.4073 14.753 36.2771 14.7205 36.1328 14.7461Z" fill="#55CB29"/>
<path opacity="0.88" fill-rule="evenodd" clip-rule="evenodd" d="M16.3086 2.34375C20.9775 2.63574 23.9885 5.01201 25.3418 9.47266C26.0747 13.1985 25.0168 16.3072 22.1679 18.7988C19.0904 21.0267 15.8026 21.3848 12.3047 19.873C8.38168 17.642 6.7378 14.2729 7.37302 9.76563C8.60372 5.16426 11.5822 2.69023 16.3086 2.34375ZM16.1133 3.22266C15.8018 3.2877 15.4762 3.35283 15.1367 3.41797C15.7361 4.5543 16.4685 5.596 17.334 6.54297C17.6162 7.20811 17.8115 7.8917 17.9199 8.59375C18.5175 6.77969 18.3384 5.05449 17.3828 3.41797C16.971 3.28008 16.5478 3.21494 16.1133 3.22266ZM14.1601 3.51563C13.8158 3.66914 13.4577 3.81563 13.0859 3.95508C14.8254 4.96309 16.0624 6.41162 16.7968 8.30078C16.8983 7.77246 16.7844 7.28418 16.455 6.83594C15.51 5.84404 14.7451 4.7373 14.1601 3.51563ZM18.5547 3.61328C19.2623 5.37373 19.3274 7.16416 18.75 8.98438C18.7825 9.04951 18.8151 9.11455 18.8476 9.17969C19.1008 8.90156 19.2799 8.57607 19.3847 8.20313C19.3912 7.27432 19.3424 6.34658 19.2383 5.41992C19.2579 5.02822 19.2904 4.6376 19.3359 4.24805C19.2959 3.78633 19.0354 3.57471 18.5547 3.61328ZM20.2148 4.19922C20.1661 4.5874 20.1336 4.97803 20.1172 5.37109C20.231 6.37861 20.2799 7.3877 20.2636 8.39844C20.1141 8.99053 19.8375 9.51143 19.4336 9.96094C19.4824 10.0586 19.5312 10.1563 19.58 10.2539C20.1734 9.72607 20.6942 9.14014 21.1425 8.49609C21.7541 7.51113 21.9982 6.45313 21.875 5.32227C21.3525 4.89854 20.7992 4.52422 20.2148 4.19922ZM12.0117 4.49219C11.3781 4.92568 10.7922 5.43027 10.2539 6.00586C10.7288 6.20762 11.2171 6.37031 11.7187 6.49414C12.5483 6.58467 13.3621 6.74746 14.1601 6.98242C14.4039 7.08789 14.6318 7.21816 14.8437 7.37305C15.1908 7.72012 15.5163 8.04561 15.8203 8.34961C15.0561 6.56006 13.7866 5.27422 12.0117 4.49219ZM22.7539 6.34766C22.5 8.33623 21.5559 9.91494 19.9218 11.084C20.27 11.0875 20.5955 10.9898 20.8984 10.791C21.5038 10.0521 22.0734 9.28721 22.6074 8.49609C22.9492 8.1543 23.291 7.8125 23.6328 7.4707C23.3904 7.0501 23.0974 6.67578 22.7539 6.34766ZM9.66794 6.73828C9.39638 7.13418 9.13596 7.54102 8.88669 7.95898C10.3609 7.71377 11.8258 7.77891 13.2812 8.1543C13.8128 8.35645 14.3336 8.55176 14.8437 8.74023C14.6159 8.38213 14.3229 8.08916 13.9648 7.86133C12.9315 7.60186 11.8898 7.37393 10.8398 7.17773C10.435 7.05918 10.0444 6.9127 9.66794 6.73828ZM23.9258 8.39844C23.0775 9.39424 22.2637 10.4196 21.4843 11.4746C20.9865 11.8189 20.4331 11.9979 19.8242 12.0117C19.8242 12.1419 19.8242 12.2722 19.8242 12.4023C20.316 12.3938 20.8043 12.3449 21.289 12.2559C22.6883 12.0136 23.7951 11.33 24.6093 10.2051C24.4769 9.64277 24.3141 9.08945 24.1211 8.54492C24.0883 8.44434 24.0231 8.39551 23.9258 8.39844ZM9.86325 8.69141C9.38278 8.8002 8.91078 8.96289 8.44724 9.17969C8.22746 9.9124 8.11352 10.6611 8.10544 11.4258C8.64838 11.3153 9.16921 11.1363 9.66794 10.8887C10.4211 10.4145 11.2023 9.99121 12.0117 9.61914C12.6976 9.47412 13.3812 9.42529 14.0625 9.47266C12.7463 8.80283 11.3466 8.54248 9.86325 8.69141ZM16.1133 9.17969C15.355 9.38926 14.7854 9.84502 14.4043 10.5469C13.8738 12.4809 14.59 13.6527 16.5527 14.0625C18.0308 13.8864 18.8609 13.0563 19.0429 11.5723C18.7538 9.93213 17.7772 9.13457 16.1133 9.17969ZM12.5 10.3516C11.5681 10.8504 10.6241 11.355 9.66794 11.8652C9.193 12.067 8.70472 12.2297 8.20309 12.3535C8.15213 12.4083 8.11958 12.4734 8.10544 12.5488C8.16268 12.977 8.2766 13.3839 8.44724 13.7695C8.74835 13.2727 9.12269 12.8332 9.57028 12.4512C10.7587 11.5479 12.0607 10.8805 13.4765 10.4492C13.1574 10.3528 12.8318 10.3203 12.5 10.3516ZM13.0859 11.5234C12.2266 11.8229 11.4129 12.2298 10.6445 12.7441C9.85397 13.3329 9.23552 14.0653 8.78903 14.9414C9.12261 15.6417 9.52951 16.2928 10.0097 16.8945C10.3195 16.4706 10.58 16.0148 10.791 15.5273C11.0589 14.6259 11.3844 13.747 11.7675 12.8906C12.1982 12.3785 12.7028 11.9553 13.2812 11.6211C13.2366 11.5432 13.1715 11.5106 13.0859 11.5234ZM24.6093 11.6211C23.1774 12.7984 21.5173 13.3681 19.6289 13.3301C19.945 13.5223 20.2868 13.6362 20.6543 13.6719C21.5428 13.4083 22.4381 13.1642 23.3398 12.9395C23.7588 12.8493 24.1819 12.8005 24.6093 12.793C24.7108 12.3869 24.7108 11.9963 24.6093 11.6211ZM13.3789 12.5977C12.9912 12.9042 12.6494 13.2622 12.3535 13.6719C12.0086 15.0934 11.4389 16.4117 10.6445 17.627C11.2609 18.1942 11.9445 18.6662 12.6953 19.043C12.7278 19.0267 12.7604 19.0105 12.7929 18.9941C12.7183 18.7921 12.6695 18.5805 12.6465 18.3594C12.4286 16.4763 12.7379 14.6859 13.5742 12.9883C13.5578 12.8251 13.4926 12.6949 13.3789 12.5977ZM24.0234 13.6719C22.9133 13.9706 21.7902 14.2636 20.6543 14.5508C20.0257 14.5203 19.456 14.325 18.9453 13.9648C18.6934 14.1004 18.6934 14.2469 18.9453 14.4043C20.018 15.2014 21.2225 15.6408 22.5586 15.7227C23.0058 15.7605 23.4128 15.6628 23.7793 15.4297C24.0745 14.8723 24.286 14.2863 24.414 13.6719C24.2839 13.6719 24.1536 13.6719 24.0234 13.6719ZM14.1601 13.8672C13.3969 15.6823 13.2831 17.5378 13.8183 19.4336C14.5823 19.7868 15.3799 19.917 16.2109 19.8242C16.0936 19.3911 15.9471 18.968 15.7715 18.5547C15.3483 17.806 14.9251 17.0573 14.5019 16.3086C14.2464 15.573 14.1975 14.8243 14.3554 14.0625C14.3208 13.9627 14.2556 13.8976 14.1601 13.8672ZM15.1367 14.5508C15.1206 14.9104 15.1368 15.2684 15.1855 15.625C15.6723 16.5334 16.1606 17.4448 16.6504 18.3594C16.8199 18.8844 16.999 19.4053 17.1875 19.9219C17.6839 19.8485 18.1721 19.7346 18.6523 19.5801C18.457 19.4499 18.2617 19.3196 18.0664 19.1895C16.7654 17.9719 15.9027 16.4907 15.4785 14.7461C15.3698 14.6675 15.2559 14.6023 15.1367 14.5508ZM17.7734 14.6484C17.9144 15.0434 18.1424 15.3852 18.457 15.6738C19.8109 16.065 21.0804 16.6347 22.2656 17.3828C22.5445 17.1854 22.7723 16.9412 22.9492 16.6504C20.9832 16.5778 19.2579 15.9105 17.7734 14.6484ZM16.5039 14.8438C16.9168 16.7293 17.9584 18.1453 19.6289 19.0918C20.3802 18.9435 21.0313 18.5854 21.582 18.0176C20.5134 17.3788 19.3742 16.8905 18.164 16.5527C17.5665 16.1563 17.1433 15.6192 16.8945 14.9414C16.7784 14.8507 16.6482 14.8182 16.5039 14.8438Z" fill="#55CB29"/>
<path opacity="0.873" fill-rule="evenodd" clip-rule="evenodd" d="M8.30083 2.73438C9.54829 2.98379 9.95523 3.7 9.52154 4.88281C8.94495 5.51484 8.27762 5.62881 7.51958 5.22461C6.84686 4.44375 6.87942 3.69512 7.61724 2.97852C7.85424 2.89043 8.08211 2.80898 8.30083 2.73438ZM8.30083 3.61328C7.87988 3.84629 7.81477 4.15557 8.10552 4.54102C8.49472 4.67129 8.75514 4.54111 8.88677 4.15039C8.83175 3.81865 8.63644 3.63965 8.30083 3.61328Z" fill="#55CB29"/>
<path opacity="0.866" fill-rule="evenodd" clip-rule="evenodd" d="M44.4335 2.73438C45.6592 2.90625 46.0987 3.58984 45.7519 4.78516C45.1726 5.52314 44.4728 5.65342 43.6523 5.17578C42.9418 4.30605 43.0395 3.54111 43.9453 2.88086C44.129 2.86152 44.2917 2.8127 44.4335 2.73438ZM44.4335 3.61328C44.2227 3.72275 44.0924 3.90186 44.0429 4.15039C44.2304 4.6123 44.5234 4.69365 44.9218 4.39453C45.0894 3.9415 44.9266 3.68105 44.4335 3.61328Z" fill="#55CB29"/>
<path opacity="0.868" fill-rule="evenodd" clip-rule="evenodd" d="M44.4336 16.9922C45.7965 17.1468 46.236 17.8629 45.752 19.1406C45.0032 19.9219 44.2546 19.9219 43.5059 19.1406C43.0505 18.079 43.3598 17.3629 44.4336 16.9922ZM44.5313 17.8711C44.3321 17.9732 44.2019 18.136 44.1406 18.3594C44.3507 18.9124 44.66 18.9775 45.0684 18.5547C45.1348 18.1479 44.9558 17.92 44.5313 17.8711Z" fill="#55CB29"/>
<path opacity="0.865" fill-rule="evenodd" clip-rule="evenodd" d="M8.10541 17.9688C9.06888 17.9229 9.62225 18.3786 9.76557 19.336C9.53512 20.4932 8.85152 20.9 7.71478 20.5567C7.03059 20.0778 6.85156 19.443 7.17767 18.6524C7.42226 18.3249 7.73151 18.0971 8.10541 17.9688ZM8.20307 18.8477C8.14235 18.9578 8.06098 19.0554 7.95892 19.1407C7.87755 19.6453 8.08913 19.8568 8.59369 19.7754C8.99769 19.2636 8.86749 18.9544 8.20307 18.8477Z" fill="#55CB29"/>
</svg>
