<svg width="50" height="29" viewBox="0 0 50 29" fill="none" xmlns="http://www.w3.org/2000/svg">
<path opacity="0.892" fill-rule="evenodd" clip-rule="evenodd" d="M50 5.07821C50 9.01698 50 12.9558 50 16.8946C49.7195 17.7299 49.2313 18.4298 48.5352 18.9942C47.4609 19.808 46.3867 20.6219 45.3125 21.4356C44.9491 21.6824 44.5585 21.8777 44.1406 22.0216C39.8475 22.1492 35.5506 22.2143 31.25 22.2169C31.6649 22.6608 31.7463 23.1654 31.4941 23.7306C31.1336 24.095 30.6941 24.2578 30.1758 24.2188C29.1888 24.2725 28.668 23.8169 28.6133 22.8516C28.3854 22.8516 28.1575 22.8516 27.9297 22.8516C27.7487 23.7649 27.1953 24.302 26.2695 24.463C23.2747 24.5281 20.28 24.5281 17.2852 24.463C16.1008 24.1634 15.5475 23.3983 15.625 22.1681C15.4297 22.1681 15.2344 22.1681 15.0391 22.1681C15.1004 22.7796 15.019 23.3655 14.7949 23.9259C14.0462 24.7071 13.2976 24.7071 12.5488 23.9259C12.3388 23.3605 12.2574 22.7746 12.3047 22.1681C12.1745 22.1681 12.0442 22.1681 11.9141 22.1681C11.9472 23.3553 11.3938 23.7947 10.2539 23.4864C9.7302 23.2022 9.53488 22.7628 9.66797 22.1681C9.27734 22.1681 8.88672 22.1681 8.49609 22.1681C8.29489 23.4599 7.54619 24.2248 6.25 24.463C5.60727 24.5421 4.9725 24.5258 4.3457 24.4141C4.31315 25.6185 4.2806 26.823 4.24805 28.0274C3.92355 28.6532 3.41899 28.8648 2.73438 28.6622C2.37642 28.4993 2.16482 28.2226 2.09961 27.8321C2.05088 27.4101 2.0346 26.987 2.05078 26.5626C1.55607 26.5782 1.06779 26.5294 0.585938 26.4161C0.241079 26.1883 0.045767 25.8791 0 25.4884C0 25.3256 0 25.1629 0 25.0001C0.0704437 24.5853 0.298309 24.2761 0.683594 24.0723C1.13816 24.0236 1.5939 24.0073 2.05078 24.0235C2.05078 23.8933 2.05078 23.7631 2.05078 23.6329C0.876385 23.5967 0.192791 23.0107 0 21.8751C0 20.2474 0 18.6199 0 16.9923C0.19249 15.857 0.876084 15.2711 2.05078 15.2345C2.05078 15.1043 2.05078 14.974 2.05078 14.8438C1.56142 14.86 1.07313 14.8437 0.585938 14.795C0.237613 14.5648 0.0423009 14.2557 0 13.8673C0 13.7045 0 13.5418 0 13.379C0.0704437 12.9642 0.298309 12.655 0.683594 12.4513C1.13816 12.4025 1.5939 12.3862 2.05078 12.4024C2.05078 9.96102 2.05078 7.51962 2.05078 5.07821C1.5939 5.09442 1.13816 5.07811 0.683594 5.02938C0.404529 4.86395 0.176664 4.65233 0 4.39462C0 4.06913 0 3.74354 0 3.41805C0.206198 3.03739 0.531719 2.82577 0.976562 2.78329C1.88802 2.71815 2.79948 2.71815 3.71094 2.78329C3.88954 2.80995 4.03603 2.89139 4.15039 3.02743C4.26301 3.341 4.32811 3.66649 4.3457 4.00399C4.55352 3.69833 4.79766 3.42167 5.07812 3.17391C6.15234 2.36014 7.22656 1.54628 8.30078 0.732507C8.75181 0.425671 9.24009 0.197742 9.76562 0.0489136C21.2239 -0.0162231 32.6823 -0.0162231 44.1406 0.0489136C44.52 0.121082 44.8781 0.251355 45.2148 0.439539C46.3867 1.31844 47.5586 2.19735 48.7305 3.07626C49.342 3.63368 49.7651 4.30106 50 5.07821ZM9.86328 0.878992C21.2565 0.862683 32.6498 0.878992 44.043 0.92782C44.3475 1.03124 44.6404 1.16141 44.9219 1.31844C45.9961 2.13221 47.0703 2.94608 48.1445 3.75985C48.572 4.15468 48.8812 4.62665 49.0723 5.17587C49.1825 7.09296 49.2313 9.01356 49.2188 10.9376C49.2313 12.8616 49.1825 14.7822 49.0723 16.6993C48.891 17.3691 48.5167 17.9062 47.9492 18.3106C46.7773 19.1895 45.6055 20.0684 44.4336 20.9473C44.154 21.084 43.861 21.1816 43.5547 21.2403C39.1602 21.2728 34.7656 21.3055 30.3711 21.338C29.8315 21.623 29.6525 22.0625 29.834 22.6563C30.0875 22.8048 30.3642 22.8861 30.6641 22.9005C30.7942 23.0307 30.7942 23.1609 30.6641 23.2911C30.5013 23.3074 30.3386 23.3236 30.1758 23.3399C29.9306 23.3606 29.7189 23.2955 29.541 23.1446C29.5287 22.6814 29.3496 22.3071 29.0039 22.0216C28.4831 21.9564 27.9622 21.9564 27.4414 22.0216C27.3112 22.0867 27.2136 22.1844 27.1484 22.3145C23.6004 22.3634 20.0522 22.3797 16.5039 22.3634C16.5538 21.5346 16.1632 21.1765 15.332 21.2891C14.5377 21.2045 14.1471 21.5626 14.1602 22.3634C13.8347 22.3634 13.5091 22.3634 13.1836 22.3634C13.2697 21.9328 13.1395 21.591 12.793 21.338C11.5785 20.9671 10.96 21.4065 10.9375 22.6563C10.712 22.7963 10.5655 22.7311 10.498 22.461C10.5701 21.9515 10.3911 21.5772 9.96094 21.338C8.78354 21.3297 7.61166 21.2646 6.44531 21.1427C5.2244 20.6208 4.60592 19.6931 4.58984 18.3595C6.38923 18.3482 7.13793 17.4367 6.83594 15.6251C6.81966 15.1693 6.80339 14.7137 6.78711 14.2579C6.45547 13.172 5.72305 12.7162 4.58984 12.8907C4.54454 10.314 4.59337 7.74247 4.73633 5.17587C4.91345 4.64227 5.2227 4.20282 5.66406 3.85751C6.73828 3.04374 7.8125 2.22987 8.88672 1.4161C9.20573 1.20809 9.53125 1.02909 9.86328 0.878992ZM35.7422 3.12509C36.1768 3.11737 36.5999 3.18251 37.0117 3.3204C37.9674 4.95692 38.1465 6.68212 37.5488 8.49618C37.4614 7.78934 37.2661 7.10575 36.9629 6.4454C36.0975 5.49843 35.365 4.45673 34.7656 3.3204C35.1052 3.25526 35.4308 3.19012 35.7422 3.12509ZM16.1133 3.22274C16.5479 3.21503 16.971 3.28016 17.3828 3.41805C18.3385 5.05458 18.5176 6.77977 17.9199 8.59384C17.8115 7.89178 17.6162 7.20819 17.334 6.54305C16.4686 5.59608 15.7361 4.55438 15.1367 3.41805C15.4763 3.35292 15.8019 3.28778 16.1133 3.22274ZM33.7891 3.41805C34.374 4.63973 35.139 5.74647 36.084 6.73837C36.4134 7.18661 36.5272 7.67489 36.4258 8.20321C35.6913 6.31405 34.4543 4.86552 32.7148 3.85751C33.0866 3.71805 33.4447 3.57157 33.7891 3.41805ZM14.1602 3.51571C14.7451 4.73739 15.5101 5.84413 16.4551 6.83602C16.7845 7.28427 16.8983 7.77255 16.7969 8.30087C16.0624 6.41171 14.8254 4.96317 13.0859 3.95516C13.4577 3.81571 13.8158 3.66923 14.1602 3.51571ZM38.1836 3.61337C38.6752 3.4704 38.9355 3.66571 38.9648 4.1993C38.8533 5.3412 38.8859 6.48055 39.0625 7.61727C39.0563 8.19081 38.861 8.67909 38.4766 9.08212C38.444 9.01698 38.4114 8.95194 38.3789 8.8868C38.9561 7.08817 38.891 5.33036 38.1836 3.61337ZM1.07422 3.61337C1.72607 3.59716 2.37712 3.61337 3.02734 3.66219C3.16707 3.70761 3.28101 3.78905 3.36914 3.90634C3.43425 11.849 3.43425 19.7918 3.36914 27.7345C3.23894 27.8646 3.10872 27.8646 2.97852 27.7345C2.94597 20.0521 2.91341 12.3699 2.88086 4.68759C2.79948 4.47596 2.653 4.32948 2.44141 4.24813C1.95312 4.21561 1.46484 4.183 0.976562 4.15048C0.768748 3.95438 0.8013 3.77538 1.07422 3.61337ZM8.30078 3.61337C8.63639 3.63973 8.8317 3.81874 8.88672 4.15048C8.75509 4.5412 8.49467 4.67137 8.10547 4.5411C7.81472 4.15565 7.87982 3.84637 8.30078 3.61337ZM18.5547 3.61337C19.0354 3.57479 19.2959 3.78641 19.3359 4.24813C19.2904 4.63768 19.2579 5.02831 19.2383 5.42001C19.3424 6.34667 19.3912 7.2744 19.3848 8.20321C19.2799 8.57616 19.1009 8.90165 18.8477 9.17977C18.8151 9.11464 18.7825 9.0496 18.75 8.98446C19.3274 7.16425 19.2623 5.37382 18.5547 3.61337ZM44.4336 3.61337C44.9267 3.68114 45.0895 3.94159 44.9219 4.39462C44.5234 4.69374 44.2305 4.61239 44.043 4.15048C44.0925 3.90194 44.2228 3.72284 44.4336 3.61337ZM39.8438 4.10165C40.4281 4.42665 40.9814 4.80096 41.5039 5.2247C41.593 7.212 40.8442 8.82333 39.2578 10.0587C39.181 9.98622 39.1159 9.90487 39.0625 9.81454C39.4788 9.38895 39.7556 8.88436 39.8926 8.30087C39.9152 7.32225 39.8664 6.34569 39.7461 5.37118C39.774 4.94696 39.8066 4.52382 39.8438 4.10165ZM20.2148 4.1993C20.7992 4.5243 21.3525 4.89862 21.875 5.32235C21.9982 6.45321 21.7541 7.51122 21.1426 8.49618C20.6942 9.14022 20.1734 9.72616 19.5801 10.254C19.5312 10.1563 19.4824 10.0587 19.4336 9.96102C19.8375 9.51151 20.1142 8.99061 20.2637 8.39852C20.2799 7.38778 20.2311 6.3787 20.1172 5.37118C20.1336 4.97811 20.1661 4.58749 20.2148 4.1993ZM31.6406 4.39462C33.4155 5.17665 34.6851 6.46249 35.4492 8.25204C35.1452 7.94803 34.8197 7.62255 34.4727 7.27548C34.1954 7.08798 33.9024 6.92518 33.5938 6.7872C32.8501 6.62977 32.1014 6.4996 31.3477 6.39657C30.846 6.27274 30.3577 6.11005 29.8828 5.90829C30.4211 5.3327 31.007 4.82811 31.6406 4.39462ZM12.0117 4.49227C13.7866 5.2743 15.0562 6.56014 15.8203 8.3497C15.5163 8.04569 15.1908 7.7202 14.8438 7.37313C14.6318 7.21825 14.4039 7.08798 14.1602 6.98251C13.3621 6.74755 12.5483 6.58475 11.7188 6.49423C11.2171 6.3704 10.7288 6.2077 10.2539 6.00595C10.7922 5.43036 11.3781 4.92577 12.0117 4.49227ZM42.3828 6.25009C42.7264 6.57821 43.0193 6.95253 43.2617 7.37313C42.9199 7.71493 42.5781 8.05673 42.2363 8.39852C41.7023 9.18964 41.1327 9.95458 40.5273 10.6934C40.2244 10.8923 39.8989 10.9899 39.5508 10.9864C41.1849 9.81737 42.1289 8.23866 42.3828 6.25009ZM22.7539 6.34774C23.0975 6.67587 23.3904 7.05018 23.6328 7.47079C23.291 7.81259 22.9492 8.15438 22.6074 8.49618C22.0734 9.28729 21.5038 10.0522 20.8984 10.7911C20.5955 10.9899 20.27 11.0876 19.9219 11.0841C21.556 9.91503 22.5 8.33632 22.7539 6.34774ZM29.2969 6.64071C29.6733 6.81512 30.064 6.96161 30.4688 7.08016C31.5174 7.28104 32.5591 7.50887 33.5938 7.76376C33.9519 7.99159 34.2448 8.28456 34.4727 8.64266C33.9625 8.45419 33.4417 8.25887 32.9102 8.05673C31.4555 7.68134 29.9906 7.6163 28.5156 7.86141C28.7649 7.44345 29.0253 7.03661 29.2969 6.64071ZM9.66797 6.73837C10.0444 6.91278 10.4351 7.05927 10.8398 7.17782C11.8898 7.37401 12.9315 7.60194 13.9648 7.86141C14.3229 8.08925 14.6159 8.38221 14.8438 8.74032C14.3336 8.55184 13.8128 8.35653 13.2812 8.15438C11.8258 7.77899 10.3609 7.71386 8.88672 7.95907C9.13599 7.5411 9.39641 7.13427 9.66797 6.73837ZM43.5547 8.30087C43.6521 8.29794 43.7172 8.34677 43.75 8.44735C43.9524 8.98964 44.1152 9.54305 44.2383 10.1075C43.4235 11.2326 42.3167 11.9162 40.918 12.1583C40.4332 12.2474 39.9449 12.2962 39.4531 12.3048C39.4531 12.1746 39.4531 12.0443 39.4531 11.9141C40.062 11.9004 40.6154 11.7214 41.1133 11.377C41.8927 10.3221 42.7064 9.29667 43.5547 8.30087ZM23.9258 8.39852C24.0231 8.39559 24.0883 8.44442 24.1211 8.54501C24.3142 9.08954 24.477 9.64286 24.6094 10.2052C23.7951 11.3301 22.6883 12.0137 21.2891 12.2559C20.8043 12.345 20.316 12.3938 19.8242 12.4024C19.8242 12.2723 19.8242 12.142 19.8242 12.0118C20.4331 11.998 20.9865 11.819 21.4844 11.4747C22.2638 10.4197 23.0775 9.39432 23.9258 8.39852ZM29.4922 8.59384C30.9755 8.44491 32.3752 8.70526 33.6914 9.37509C33.0102 9.32772 32.3266 9.37655 31.6406 9.52157C30.8312 9.89364 30.05 10.3169 29.2969 10.7911C28.7981 11.0388 28.2773 11.2178 27.7344 11.3282C27.7424 10.5641 27.8563 9.81532 28.0762 9.08212C28.5397 8.86532 29.0117 8.70262 29.4922 8.59384ZM9.86328 8.69149C11.3466 8.54257 12.7463 8.80292 14.0625 9.47274C13.3813 9.42538 12.6977 9.47421 12.0117 9.61923C11.2023 9.9913 10.4211 10.4145 9.66797 10.8888C9.16924 11.1364 8.64841 11.3154 8.10547 11.4259C8.11355 10.6612 8.22749 9.91249 8.44727 9.17977C8.91081 8.96298 9.38281 8.80028 9.86328 8.69149ZM35.7422 9.08212C37.4258 9.04003 38.4023 9.8538 38.6719 11.5235C38.2757 13.4359 37.1364 14.1683 35.2539 13.7208C33.6803 12.7114 33.4036 11.4256 34.4238 9.86337C34.8034 9.487 35.2429 9.22655 35.7422 9.08212ZM16.1133 9.17977C17.7772 9.13466 18.7538 9.93221 19.043 11.5724C18.8609 13.0564 18.0309 13.8865 16.5527 14.0626C14.59 13.6528 13.8738 12.4809 14.4043 10.547C14.7854 9.84511 15.3551 9.38934 16.1133 9.17977ZM32.1289 10.254C32.4607 10.2227 32.7863 10.2553 33.1055 10.3516C31.6896 10.7829 30.3876 11.4503 29.1992 12.3536C28.7517 12.7356 28.3772 13.1751 28.0762 13.672C27.9056 13.2863 27.7916 12.8794 27.7344 12.4513C27.7485 12.3759 27.7811 12.3107 27.832 12.2559C28.3337 12.1321 28.822 11.9694 29.2969 11.7677C30.25 11.2589 31.194 10.7543 32.1289 10.254ZM12.5 10.3516C12.8318 10.3204 13.1574 10.3529 13.4766 10.4493C12.0607 10.8806 10.7587 11.5479 9.57031 12.4513C9.12272 12.8333 8.74838 13.2727 8.44727 13.7696C8.27663 13.384 8.16271 12.977 8.10547 12.5489C8.11961 12.4735 8.15216 12.4084 8.20312 12.3536C8.70475 12.2298 9.19303 12.0671 9.66797 11.8653C10.6241 11.3551 11.5682 10.8505 12.5 10.3516ZM32.7148 11.4259C32.8004 11.4131 32.8655 11.4456 32.9102 11.5235C32.3342 11.8549 31.8296 12.278 31.3965 12.7931C31.0134 13.6494 30.6878 14.5283 30.4199 15.4298C30.2089 15.9173 29.9484 16.373 29.6387 16.797C29.1584 16.1952 28.7516 15.5441 28.418 14.8438C29.3895 13.1235 30.8218 11.9842 32.7148 11.4259ZM13.0859 11.5235C13.1715 11.5107 13.2366 11.5433 13.2812 11.6212C12.7028 11.9554 12.1982 12.3786 11.7676 12.8907C11.3845 13.7471 11.0589 14.626 10.791 15.5274C10.58 16.0149 10.3195 16.4707 10.0098 16.8946C9.52954 16.2929 9.12264 15.6418 8.78906 14.9415C9.23555 14.0654 9.854 13.333 10.6445 12.7442C11.4129 12.2299 12.2267 11.8229 13.0859 11.5235ZM44.2383 11.5235C44.35 11.8997 44.35 12.2903 44.2383 12.6954C43.8108 12.7029 43.3877 12.7517 42.9688 12.8419C42.0659 13.067 41.1707 13.3111 40.2832 13.5743C39.9157 13.5387 39.5739 13.4247 39.2578 13.2325C40.7491 13.2209 42.1489 12.8628 43.457 12.1583C43.7358 11.9599 43.9963 11.7484 44.2383 11.5235ZM24.6094 11.6212C24.7108 11.9964 24.7108 12.387 24.6094 12.7931C24.1819 12.8006 23.7588 12.8494 23.3398 12.9395C22.4381 13.1642 21.5429 13.4084 20.6543 13.672C20.2868 13.6363 19.945 13.5224 19.6289 13.3302C21.5173 13.3682 23.1774 12.7985 24.6094 11.6212ZM33.0078 12.5001C33.1861 12.691 33.235 12.9188 33.1543 13.1837C32.2556 15.0303 31.9788 16.9509 32.3242 18.9454C31.5734 18.5686 30.8898 18.0967 30.2734 17.5294C31.0673 16.3151 31.637 14.9968 31.9824 13.5743C32.2783 13.1646 32.6201 12.8066 33.0078 12.5001ZM13.3789 12.5977C13.4927 12.695 13.5578 12.8252 13.5742 12.9884C12.7379 14.686 12.4286 16.4764 12.6465 18.3595C12.6695 18.5806 12.7184 18.7922 12.793 18.9942C12.7604 19.0105 12.7278 19.0267 12.6953 19.0431C11.9445 18.6663 11.2609 18.1943 10.6445 17.627C11.439 16.4118 12.0086 15.0934 12.3535 13.672C12.6494 13.2623 12.9912 12.9043 13.3789 12.5977ZM0.976562 13.2813C1.33464 13.2813 1.69271 13.2813 2.05078 13.2813C2.05078 13.5418 2.05078 13.8021 2.05078 14.0626C1.72364 14.0787 1.39813 14.0624 1.07422 14.0138C0.85795 13.7948 0.825398 13.5507 0.976562 13.2813ZM43.6523 13.5743C43.7825 13.5743 43.9128 13.5743 44.043 13.5743C43.8986 14.2216 43.6707 14.84 43.3594 15.4298C41.5208 15.7995 39.877 15.3764 38.4277 14.1602C38.369 14.0172 38.4179 13.9195 38.5742 13.8673C39.085 14.2274 39.6546 14.4227 40.2832 14.4532C41.4191 14.166 42.5422 13.873 43.6523 13.5743ZM24.0234 13.672C24.1536 13.672 24.2839 13.672 24.4141 13.672C24.286 14.2864 24.0745 14.8724 23.7793 15.4298C23.4128 15.6629 23.0059 15.7605 22.5586 15.7227C21.2226 15.6409 20.0181 15.2015 18.9453 14.4044C18.6935 14.247 18.6935 14.1005 18.9453 13.9649C19.4561 14.3251 20.0257 14.5204 20.6543 14.5509C21.7902 14.2637 22.9133 13.9707 24.0234 13.672ZM4.88281 13.7696C5.27812 13.7639 5.58736 13.9266 5.81055 14.2579C5.91889 14.7028 5.96771 15.1585 5.95703 15.6251C6.21993 16.6316 5.86187 17.2502 4.88281 17.4806C4.88281 16.2435 4.88281 15.0066 4.88281 13.7696ZM33.7891 13.7696C33.8846 13.8 33.9497 13.8651 33.9844 13.9649C33.8265 14.7267 33.8753 15.4755 34.1309 16.211C34.554 16.9598 34.9772 17.7084 35.4004 18.4571C35.5761 18.8704 35.7226 19.2935 35.8398 19.7266C35.0088 19.8194 34.2112 19.6892 33.4473 19.336C32.912 17.4402 33.0259 15.5848 33.7891 13.7696ZM14.1602 13.8673C14.2557 13.8976 14.3208 13.9628 14.3555 14.0626C14.1976 14.8244 14.2464 15.5731 14.502 16.3087C14.9251 17.0574 15.3483 17.806 15.7715 18.5548C15.9472 18.9681 16.0937 19.3912 16.2109 19.8243C15.3799 19.9171 14.5823 19.7869 13.8184 19.4337C13.2831 17.5379 13.397 15.6824 14.1602 13.8673ZM34.7656 14.4532C34.8849 14.5048 34.9987 14.5699 35.1074 14.6485C35.5316 16.3932 36.3943 17.8743 37.6953 19.0919C37.8906 19.2221 38.0859 19.3523 38.2812 19.4825C37.8011 19.637 37.3128 19.751 36.8164 19.8243C36.4234 18.4525 35.8212 17.183 35.0098 16.0157C34.8066 15.5147 34.7253 14.9939 34.7656 14.4532ZM15.1367 14.5509C15.256 14.6024 15.3698 14.6676 15.4785 14.7462C15.9027 16.4908 16.7654 17.972 18.0664 19.1895C18.2617 19.3197 18.457 19.45 18.6523 19.5802C18.1722 19.7347 17.6839 19.8486 17.1875 19.922C16.999 19.4054 16.8199 18.8845 16.6504 18.3595C16.1606 17.4449 15.6724 16.5335 15.1855 15.6251C15.1368 15.2684 15.1206 14.9104 15.1367 14.5509ZM37.4023 14.5509C38.8868 15.813 40.6121 16.4803 42.5781 16.5528C42.4013 16.8436 42.1734 17.0878 41.8945 17.2852C41.3727 16.9265 40.8193 16.6173 40.2344 16.3575C39.5033 16.1355 38.7871 15.8751 38.0859 15.5763C37.7713 15.2876 37.5434 14.9458 37.4023 14.5509ZM17.7734 14.6485C19.2579 15.9106 20.9832 16.5779 22.9492 16.6505C22.7724 16.9413 22.5445 17.1854 22.2656 17.3829C21.0805 16.6348 19.8109 16.0651 18.457 15.6739C18.1424 15.3852 17.9145 15.0434 17.7734 14.6485ZM36.1328 14.7462C36.2771 14.7206 36.4073 14.7531 36.5234 14.8438C36.7723 15.5217 37.1954 16.0588 37.793 16.4552C38.6067 16.7481 39.4206 17.0411 40.2344 17.3341C40.5801 17.5226 40.9057 17.7343 41.2109 17.9688C40.643 18.4967 39.992 18.8385 39.2578 18.9942C37.5873 18.0477 36.5457 16.6317 36.1328 14.7462ZM16.5039 14.8438C16.6482 14.8182 16.7784 14.8508 16.8945 14.9415C17.1434 15.6193 17.5665 16.1564 18.1641 16.5528C19.3742 16.8906 20.5135 17.3789 21.582 18.0177C21.0313 18.5854 20.3803 18.9435 19.6289 19.0919C17.9584 18.1454 16.9168 16.7294 16.5039 14.8438ZM0.976562 16.6993C1.09006 18.5055 1.10633 20.3284 1.02539 22.1681C0.846442 20.3485 0.830167 18.5256 0.976562 16.6993ZM44.5312 17.8712C44.9558 17.9201 45.1348 18.1479 45.0684 18.5548C44.66 18.9776 44.3507 18.9125 44.1406 18.3595C44.2019 18.1361 44.332 17.9733 44.5312 17.8712ZM8.20312 18.8477C8.86755 18.9545 8.99775 19.2637 8.59375 19.7755C8.08919 19.8568 7.87761 19.6453 7.95898 19.1407C8.06104 19.0555 8.14241 18.9578 8.20312 18.8477ZM4.29688 20.6056C5.11907 21.7 6.22584 22.2208 7.61719 22.1681C7.496 22.7944 7.13792 23.2339 6.54297 23.4864C5.79739 23.6933 5.06497 23.6771 4.3457 23.4376C4.29689 22.4941 4.28062 21.5501 4.29688 20.6056ZM13.2812 23.2423C13.576 23.2262 13.8689 23.2425 14.1602 23.2911C13.8133 23.7638 13.5203 23.7475 13.2812 23.2423ZM16.7969 23.3399C17.0359 23.2449 17.2964 23.2124 17.5781 23.2423C17.6037 23.3866 17.5712 23.5168 17.4805 23.6329C17.2389 23.5528 17.011 23.4552 16.7969 23.3399ZM18.457 23.2423C18.6849 23.2423 18.9128 23.2423 19.1406 23.2423C19.1406 23.3724 19.1406 23.5027 19.1406 23.6329C18.9128 23.6329 18.6849 23.6329 18.457 23.6329C18.457 23.5027 18.457 23.3724 18.457 23.2423ZM20.0195 23.2423C20.2148 23.2423 20.4102 23.2423 20.6055 23.2423C20.6055 23.3724 20.6055 23.5027 20.6055 23.6329C20.4102 23.6329 20.2148 23.6329 20.0195 23.6329C20.0195 23.5027 20.0195 23.3724 20.0195 23.2423ZM21.4844 23.2423C21.7122 23.2423 21.9401 23.2423 22.168 23.2423C22.168 23.3724 22.168 23.5027 22.168 23.6329C21.9401 23.6329 21.7122 23.6329 21.4844 23.6329C21.4844 23.5027 21.4844 23.3724 21.4844 23.2423ZM23.0469 23.2423C23.2747 23.2423 23.5026 23.2423 23.7305 23.2423C23.7305 23.3724 23.7305 23.5027 23.7305 23.6329C23.5026 23.6329 23.2747 23.6329 23.0469 23.6329C23.0469 23.5027 23.0469 23.3724 23.0469 23.2423ZM24.6094 23.2423C24.8372 23.2423 25.0651 23.2423 25.293 23.2423C25.293 23.3724 25.293 23.5027 25.293 23.6329C25.0651 23.6329 24.8372 23.6329 24.6094 23.6329C24.6094 23.5027 24.6094 23.3724 24.6094 23.2423ZM26.1719 23.2423C26.9216 23.2445 26.9216 23.3422 26.1719 23.5352C26.1719 23.4376 26.1719 23.3399 26.1719 23.2423ZM0.976562 24.9024C1.33464 24.9024 1.69271 24.9024 2.05078 24.9024C2.05078 25.1629 2.05078 25.4232 2.05078 25.6837C1.72364 25.6998 1.39813 25.6835 1.07422 25.6348C0.85795 25.4159 0.825398 25.1718 0.976562 24.9024Z" fill="#55CB29"/>
<path opacity="0.88" fill-rule="evenodd" clip-rule="evenodd" d="M35.9374 2.24615C39.8129 2.3984 42.6287 4.18873 44.3847 7.61725C46.0191 11.903 45.1564 15.5977 41.7968 18.7012C38.0092 21.3337 34.2006 21.3663 30.371 18.7989C27.1249 15.9564 26.1322 12.4571 27.3925 8.30084C29.0128 4.53756 31.8612 2.5193 35.9374 2.24615ZM35.7421 3.12506C35.4307 3.1901 35.1051 3.25524 34.7656 3.32037C35.365 4.4567 36.0974 5.4984 36.9628 6.44537C37.2661 7.10573 37.4614 7.78932 37.5488 8.49616C38.1464 6.68209 37.9673 4.9569 37.0117 3.32037C36.5999 3.18248 36.1767 3.11735 35.7421 3.12506ZM33.789 3.41803C33.4447 3.57155 33.0866 3.71803 32.7148 3.85748C34.4542 4.86549 35.6913 6.31403 36.4257 8.20319C36.5272 7.67487 36.4133 7.18658 36.0839 6.73834C35.1389 5.74645 34.374 4.63971 33.789 3.41803ZM38.1835 3.61334C38.891 5.33033 38.956 7.08815 38.3789 8.88678C38.4114 8.95192 38.444 9.01696 38.4765 9.08209C38.861 8.67907 39.0563 8.19078 39.0624 7.61725C38.8859 6.48053 38.8533 5.34117 38.9648 4.19928C38.9355 3.66569 38.6751 3.47037 38.1835 3.61334ZM39.8437 4.10162C39.8066 4.52379 39.774 4.94694 39.746 5.37116C39.8664 6.34567 39.9152 7.32223 39.8925 8.30084C39.7555 8.88434 39.4788 9.38893 39.0624 9.81451C39.1159 9.90485 39.1809 9.98619 39.2578 10.0587C40.8442 8.8233 41.5929 7.21198 41.5039 5.22467C40.9814 4.80094 40.4281 4.42662 39.8437 4.10162ZM31.6406 4.39459C31.007 4.82809 30.421 5.33268 29.8828 5.90826C30.3577 6.11002 30.8459 6.27272 31.3476 6.39655C32.1013 6.49957 32.85 6.62975 33.5937 6.78717C33.9024 6.92516 34.1954 7.08795 34.4726 7.27545C34.8197 7.62252 35.1452 7.94801 35.4492 8.25201C34.685 6.46246 33.4155 5.17662 31.6406 4.39459ZM42.3828 6.25006C42.1289 8.23864 41.1848 9.81735 39.5507 10.9864C39.8989 10.9899 40.2244 10.8922 40.5273 10.6934C41.1327 9.95455 41.7023 9.18961 42.2363 8.3985C42.5781 8.0567 42.9199 7.71491 43.2617 7.37311C43.0193 6.9525 42.7263 6.57819 42.3828 6.25006ZM29.2968 6.64069C29.0252 7.03658 28.7649 7.44342 28.5156 7.86139C29.9906 7.61627 31.4554 7.68131 32.9101 8.0567C33.4416 8.25885 33.9624 8.45416 34.4726 8.64264C34.2448 8.28453 33.9518 7.99157 33.5937 7.76373C32.559 7.50885 31.5173 7.28102 30.4687 7.08014C30.0639 6.96159 29.6733 6.8151 29.2968 6.64069ZM43.5546 8.30084C42.7064 9.29664 41.8926 10.322 41.1132 11.377C40.6154 11.7214 40.062 11.9004 39.4531 11.9141C39.4531 12.0443 39.4531 12.1746 39.4531 12.3047C39.9449 12.2962 40.4332 12.2473 40.9179 12.1583C42.3166 11.9162 43.4235 11.2326 44.2382 10.1075C44.1152 9.54303 43.9524 8.98961 43.7499 8.44733C43.7171 8.34674 43.652 8.29791 43.5546 8.30084ZM29.4921 8.59381C29.0117 8.7026 28.5397 8.8653 28.0761 9.08209C27.8563 9.8153 27.7423 10.564 27.7343 11.3282C28.2773 11.2177 28.7981 11.0387 29.2968 10.7911C30.0499 10.3169 30.8312 9.89362 31.6406 9.52155C32.3265 9.37653 33.0101 9.3277 33.6914 9.37506C32.3751 8.70524 30.9754 8.44489 29.4921 8.59381ZM35.7421 9.08209C35.2428 9.22653 34.8034 9.48698 34.4238 9.86334C33.4036 11.4256 33.6802 12.7114 35.2539 13.7208C37.1364 14.1683 38.2756 13.4359 38.6718 11.5235C38.4023 9.85377 37.4257 9.04 35.7421 9.08209ZM32.1289 10.254C31.194 10.7543 30.2499 11.2589 29.2968 11.7676C28.8219 11.9694 28.3336 12.1321 27.832 12.2559C27.781 12.3107 27.7485 12.3758 27.7343 12.4512C27.7915 12.8794 27.9055 13.2863 28.0761 13.6719C28.3772 13.1751 28.7516 12.7356 29.1992 12.3536C30.3875 11.4503 31.6896 10.7829 33.1054 10.3516C32.7863 10.2552 32.4607 10.2227 32.1289 10.254ZM32.7148 11.4258C30.8217 11.9841 29.3894 13.1235 28.4179 14.8438C28.7515 15.5441 29.1583 16.1952 29.6386 16.7969C29.9484 16.373 30.2088 15.9172 30.4199 15.4297C30.6877 14.5283 31.0133 13.6494 31.3964 12.793C31.8295 12.278 32.3341 11.8548 32.9101 11.5235C32.8655 11.4456 32.8003 11.413 32.7148 11.4258ZM44.2382 11.5235C43.9962 11.7484 43.7358 11.9599 43.457 12.1583C42.1489 12.8628 40.7491 13.2209 39.2578 13.2325C39.5739 13.4247 39.9157 13.5386 40.2832 13.5743C41.1707 13.3111 42.0659 13.067 42.9687 12.8419C43.3876 12.7517 43.8108 12.7029 44.2382 12.6954C44.3499 12.2903 44.3499 11.8997 44.2382 11.5235ZM33.0078 12.5001C32.6201 12.8066 32.2783 13.1646 31.9824 13.5743C31.637 14.9967 31.0672 16.3151 30.2734 17.5294C30.8898 18.0966 31.5734 18.5686 32.3242 18.9454C31.9788 16.9508 32.2555 15.0302 33.1542 13.1837C33.2349 12.9188 33.1861 12.691 33.0078 12.5001ZM43.6523 13.5743C42.5421 13.873 41.4191 14.166 40.2832 14.4532C39.6545 14.4227 39.0849 14.2274 38.5742 13.8672C38.4178 13.9195 38.369 14.0172 38.4277 14.1602C39.8769 15.3763 41.5207 15.7995 43.3593 15.4297C43.6707 14.84 43.8986 14.2215 44.0429 13.5743C43.9127 13.5743 43.7825 13.5743 43.6523 13.5743ZM33.789 13.7696C33.0258 15.5847 32.912 17.4402 33.4472 19.336C34.2112 19.6892 35.0087 19.8194 35.8398 19.7266C35.7225 19.2935 35.576 18.8704 35.4003 18.4571C34.9772 17.7084 34.554 16.9597 34.1308 16.211C33.8752 15.4755 33.8264 14.7267 33.9843 13.9649C33.9497 13.8651 33.8845 13.8 33.789 13.7696ZM34.7656 14.4532C34.7252 14.9939 34.8066 15.5147 35.0097 16.0157C35.8211 17.183 36.4234 18.4525 36.8164 19.8243C37.3127 19.7509 37.801 19.637 38.2812 19.4825C38.0859 19.3523 37.8906 19.222 37.6953 19.0919C36.3943 17.8743 35.5316 16.3931 35.1074 14.6485C34.9987 14.5699 34.8848 14.5047 34.7656 14.4532ZM37.4023 14.5508C37.5433 14.9458 37.7712 15.2876 38.0859 15.5762C38.7871 15.8751 39.5033 16.1355 40.2343 16.3575C40.8193 16.6172 41.3726 16.9264 41.8945 17.2852C42.1734 17.0878 42.4012 16.8436 42.5781 16.5528C40.6121 16.4802 38.8868 15.813 37.4023 14.5508ZM36.1328 14.7462C36.5457 16.6317 37.5873 18.0477 39.2578 18.9942C39.9919 18.8384 40.6429 18.4966 41.2109 17.9688C40.9056 17.7342 40.58 17.5226 40.2343 17.334C39.4206 17.0411 38.6067 16.7481 37.7929 16.4551C37.1954 16.0588 36.7722 15.5216 36.5234 14.8438C36.4073 14.7531 36.2771 14.7206 36.1328 14.7462Z" fill="#55CB29"/>
<path opacity="0.88" fill-rule="evenodd" clip-rule="evenodd" d="M16.3086 2.34381C20.9775 2.6358 23.9885 5.01207 25.3418 9.47272C26.0747 13.1986 25.0168 16.3073 22.1679 18.7989C19.0904 21.0267 15.8026 21.3848 12.3047 19.8731C8.38168 17.6421 6.7378 14.2729 7.37302 9.76569C8.60372 5.16432 11.5822 2.6903 16.3086 2.34381ZM16.1133 3.22272C15.8018 3.28776 15.4762 3.35289 15.1367 3.41803C15.7361 4.55436 16.4685 5.59606 17.334 6.54303C17.6162 7.20817 17.8115 7.89176 17.9199 8.59381C18.5175 6.77975 18.3384 5.05455 17.3828 3.41803C16.971 3.28014 16.5478 3.215 16.1133 3.22272ZM14.1601 3.51569C13.8158 3.6692 13.4577 3.81569 13.0859 3.95514C14.8254 4.96315 16.0624 6.41168 16.7968 8.30084C16.8983 7.77252 16.7844 7.28424 16.455 6.836C15.51 5.8441 14.7451 4.73737 14.1601 3.51569ZM18.5547 3.61334C19.2623 5.37379 19.3274 7.16422 18.75 8.98444C18.7825 9.04957 18.8151 9.11461 18.8476 9.17975C19.1008 8.90162 19.2799 8.57614 19.3847 8.20319C19.3912 7.27438 19.3424 6.34664 19.2383 5.41998C19.2579 5.02828 19.2904 4.63766 19.3359 4.24811C19.2959 3.78639 19.0354 3.57477 18.5547 3.61334ZM20.2148 4.19928C20.1661 4.58746 20.1336 4.97809 20.1172 5.37116C20.231 6.37867 20.2799 7.38776 20.2636 8.3985C20.1141 8.99059 19.8375 9.51149 19.4336 9.961C19.4824 10.0587 19.5312 10.1563 19.58 10.254C20.1734 9.72614 20.6942 9.1402 21.1425 8.49616C21.7541 7.51119 21.9982 6.45319 21.875 5.32233C21.3525 4.8986 20.7992 4.52428 20.2148 4.19928ZM12.0117 4.49225C11.3781 4.92574 10.7922 5.43033 10.2539 6.00592C10.7288 6.20768 11.2171 6.37037 11.7187 6.4942C12.5483 6.58473 13.3621 6.74752 14.1601 6.98248C14.4039 7.08795 14.6318 7.21823 14.8437 7.37311C15.1908 7.72018 15.5163 8.04567 15.8203 8.34967C15.0561 6.56012 13.7866 5.27428 12.0117 4.49225ZM22.7539 6.34772C22.5 8.33629 21.5559 9.915 19.9218 11.084C20.27 11.0876 20.5955 10.9899 20.8984 10.7911C21.5038 10.0522 22.0734 9.28727 22.6074 8.49616C22.9492 8.15436 23.291 7.81256 23.6328 7.47076C23.3904 7.05016 23.0974 6.67584 22.7539 6.34772ZM9.66794 6.73834C9.39638 7.13424 9.13596 7.54108 8.88669 7.95905C10.3609 7.71383 11.8258 7.77897 13.2812 8.15436C13.8128 8.35651 14.3336 8.55182 14.8437 8.7403C14.6159 8.38219 14.3229 8.08922 13.9648 7.86139C12.9315 7.60192 11.8898 7.37399 10.8398 7.1778C10.435 7.05924 10.0444 6.91276 9.66794 6.73834ZM23.9258 8.3985C23.0775 9.3943 22.2637 10.4197 21.4843 11.4747C20.9865 11.819 20.4331 11.998 19.8242 12.0118C19.8242 12.142 19.8242 12.2722 19.8242 12.4024C20.316 12.3938 20.8043 12.345 21.289 12.2559C22.6883 12.0136 23.7951 11.33 24.6093 10.2051C24.4769 9.64284 24.3141 9.08951 24.1211 8.54498C24.0883 8.4444 24.0231 8.39557 23.9258 8.3985ZM9.86325 8.69147C9.38278 8.80026 8.91078 8.96295 8.44724 9.17975C8.22746 9.91246 8.11352 10.6612 8.10544 11.4258C8.64838 11.3154 9.16921 11.1364 9.66794 10.8887C10.4211 10.4145 11.2023 9.99127 12.0117 9.6192C12.6976 9.47418 13.3812 9.42535 14.0625 9.47272C12.7463 8.80289 11.3466 8.54254 9.86325 8.69147ZM16.1133 9.17975C15.355 9.38932 14.7854 9.84508 14.4043 10.5469C13.8738 12.4809 14.59 13.6528 16.5527 14.0626C18.0308 13.8865 18.8609 13.0564 19.0429 11.5723C18.7538 9.93219 17.7772 9.13463 16.1133 9.17975ZM12.5 10.3516C11.5681 10.8505 10.6241 11.355 9.66794 11.8653C9.193 12.0671 8.70472 12.2297 8.20309 12.3536C8.15213 12.4084 8.11958 12.4735 8.10544 12.5489C8.16268 12.977 8.2766 13.3839 8.44724 13.7696C8.74835 13.2727 9.12269 12.8333 9.57028 12.4512C10.7587 11.5479 12.0607 10.8805 13.4765 10.4493C13.1574 10.3529 12.8318 10.3204 12.5 10.3516ZM13.0859 11.5235C12.2266 11.8229 11.4129 12.2298 10.6445 12.7442C9.85397 13.333 9.23552 14.0654 8.78903 14.9415C9.12261 15.6418 9.52951 16.2928 10.0097 16.8946C10.3195 16.4707 10.58 16.0149 10.791 15.5274C11.0589 14.6259 11.3844 13.747 11.7675 12.8907C12.1982 12.3786 12.7028 11.9553 13.2812 11.6212C13.2366 11.5432 13.1715 11.5107 13.0859 11.5235ZM24.6093 11.6212C23.1774 12.7985 21.5173 13.3681 19.6289 13.3301C19.945 13.5223 20.2868 13.6363 20.6543 13.6719C21.5428 13.4084 22.4381 13.1642 23.3398 12.9395C23.7588 12.8494 24.1819 12.8006 24.6093 12.793C24.7108 12.387 24.7108 11.9964 24.6093 11.6212ZM13.3789 12.5977C12.9912 12.9043 12.6494 13.2623 12.3535 13.6719C12.0086 15.0934 11.4389 16.4118 10.6445 17.627C11.2609 18.1943 11.9445 18.6663 12.6953 19.043C12.7278 19.0267 12.7604 19.0105 12.7929 18.9942C12.7183 18.7922 12.6695 18.5805 12.6465 18.3594C12.4286 16.4763 12.7379 14.686 13.5742 12.9883C13.5578 12.8252 13.4926 12.695 13.3789 12.5977ZM24.0234 13.6719C22.9133 13.9707 21.7902 14.2636 20.6543 14.5508C20.0257 14.5204 19.456 14.3251 18.9453 13.9649C18.6934 14.1005 18.6934 14.2469 18.9453 14.4044C20.018 15.2014 21.2225 15.6409 22.5586 15.7227C23.0058 15.7605 23.4128 15.6629 23.7793 15.4297C24.0745 14.8723 24.286 14.2864 24.414 13.6719C24.2839 13.6719 24.1536 13.6719 24.0234 13.6719ZM14.1601 13.8672C13.3969 15.6824 13.2831 17.5379 13.8183 19.4337C14.5823 19.7869 15.3799 19.9171 16.2109 19.8243C16.0936 19.3912 15.9471 18.968 15.7715 18.5548C15.3483 17.806 14.9251 17.0574 14.5019 16.3087C14.2464 15.5731 14.1975 14.8244 14.3554 14.0626C14.3208 13.9628 14.2556 13.8976 14.1601 13.8672ZM15.1367 14.5508C15.1206 14.9104 15.1368 15.2684 15.1855 15.6251C15.6723 16.5335 16.1606 17.4449 16.6504 18.3594C16.8199 18.8844 16.999 19.4053 17.1875 19.9219C17.6839 19.8486 18.1721 19.7346 18.6523 19.5801C18.457 19.45 18.2617 19.3197 18.0664 19.1895C16.7654 17.9719 15.9027 16.4908 15.4785 14.7462C15.3698 14.6675 15.2559 14.6024 15.1367 14.5508ZM17.7734 14.6485C17.9144 15.0434 18.1424 15.3852 18.457 15.6739C19.8109 16.0651 21.0804 16.6347 22.2656 17.3829C22.5445 17.1854 22.7723 16.9413 22.9492 16.6505C20.9832 16.5779 19.2579 15.9106 17.7734 14.6485ZM16.5039 14.8438C16.9168 16.7294 17.9584 18.1454 19.6289 19.0919C20.3802 18.9435 21.0313 18.5854 21.582 18.0176C20.5134 17.3789 19.3742 16.8906 18.164 16.5528C17.5665 16.1564 17.1433 15.6193 16.8945 14.9415C16.7784 14.8507 16.6482 14.8182 16.5039 14.8438Z" fill="#55CB29"/>
<path opacity="0.873" fill-rule="evenodd" clip-rule="evenodd" d="M8.30083 2.73444C9.54829 2.98385 9.95523 3.70006 9.52154 4.88287C8.94495 5.5149 8.27762 5.62887 7.51958 5.22467C6.84686 4.44381 6.87942 3.69518 7.61724 2.97858C7.85424 2.89049 8.08211 2.80905 8.30083 2.73444ZM8.30083 3.61334C7.87988 3.84635 7.81477 4.15563 8.10552 4.54108C8.49472 4.67135 8.75514 4.54117 8.88677 4.15045C8.83175 3.81871 8.63644 3.63971 8.30083 3.61334Z" fill="#55CB29"/>
<path opacity="0.866" fill-rule="evenodd" clip-rule="evenodd" d="M44.4335 2.73444C45.6592 2.90631 46.0987 3.5899 45.7519 4.78522C45.1726 5.52321 44.4728 5.65348 43.6523 5.17584C42.9418 4.30612 43.0395 3.54117 43.9453 2.88092C44.129 2.86158 44.2917 2.81276 44.4335 2.73444ZM44.4335 3.61334C44.2227 3.72281 44.0924 3.90192 44.0429 4.15045C44.2304 4.61237 44.5234 4.69371 44.9218 4.39459C45.0894 3.94156 44.9266 3.68112 44.4335 3.61334Z" fill="#55CB29"/>
<path opacity="0.868" fill-rule="evenodd" clip-rule="evenodd" d="M44.4336 16.9922C45.7965 17.1468 46.236 17.863 45.752 19.1407C45.0032 19.9219 44.2546 19.9219 43.5059 19.1407C43.0505 18.0791 43.3598 17.363 44.4336 16.9922ZM44.5313 17.8712C44.3321 17.9733 44.2019 18.1361 44.1406 18.3594C44.3507 18.9125 44.66 18.9776 45.0684 18.5547C45.1348 18.1479 44.9558 17.9201 44.5313 17.8712Z" fill="#55CB29"/>
<path opacity="0.865" fill-rule="evenodd" clip-rule="evenodd" d="M8.10541 17.9688C9.06888 17.9229 9.62225 18.3787 9.76557 19.336C9.53512 20.4933 8.85152 20.9001 7.71478 20.5567C7.03059 20.0778 6.85156 19.4431 7.17767 18.6524C7.42226 18.325 7.73151 18.0972 8.10541 17.9688ZM8.20307 18.8478C8.14235 18.9578 8.06098 19.0555 7.95892 19.1407C7.87755 19.6453 8.08913 19.8568 8.59369 19.7755C8.99769 19.2637 8.86749 18.9545 8.20307 18.8478Z" fill="#55CB29"/>
</svg>
